<svg width="52" height="53" viewBox="0 0 52 53" fill="none" xmlns="http://www.w3.org/2000/svg">
<path d="M52 31.6971C52 45.7921 32.2244 53 18.0408 53C3.85724 53 0 43.2611 0 29.166C0 15.071 8.4898 5.54294 24.4082 0.691783C40.3265 -4.15938 52 17.6021 52 31.6971Z" fill="#867AB6" fill-opacity="0.75"/>
<path d="M27.0332 41C26.7213 41 26.4453 40.928 26.2053 40.784C25.9653 40.616 25.8453 40.376 25.8453 40.064V18.752L24.4053 21.056C24.3093 21.2 24.2013 21.308 24.0813 21.38C23.9613 21.452 23.8413 21.488 23.7213 21.488C23.4573 21.488 23.2293 21.38 23.0373 21.164C22.8693 20.948 22.7853 20.708 22.7853 20.444C22.7853 20.276 22.8453 20.084 22.9653 19.868C23.0853 19.628 23.1933 19.46 23.2893 19.364L26.2773 15.188C26.3973 15.044 26.5173 14.924 26.6373 14.828C26.7573 14.708 26.9373 14.648 27.1773 14.648C27.4413 14.648 27.6813 14.732 27.8973 14.9C28.1133 15.044 28.2213 15.272 28.2213 15.584V40.064C28.2213 40.376 28.0893 40.616 27.8253 40.784C27.5853 40.928 27.3213 41 27.0332 41Z" fill="white"/>
</svg>
