<svg fill="none" height="53" viewBox="0 0 52 53" width="52" xmlns="http://www.w3.org/2000/svg"><path d="m52 31.6971c0 14.095-19.7756 21.3029-33.9592 21.3029-14.18356 0-18.0408-9.7389-18.0408-23.834 0-14.095 8.4898-23.62306 24.4082-28.474217 15.9183-4.851163 27.5918 16.910317 27.5918 31.005317z" fill="#867ab6" fill-opacity=".75"/><path d="m25.7069 41.216c-1.272 0-2.376-.18-3.312-.54-.936-.384-1.716-.864-2.34-1.44s-1.08-1.212-1.368-1.908-.432-1.38-.432-2.052c0-.504.084-.84.252-1.008.192-.168.468-.252.828-.252.504 0 .84.096 1.008.288.168.168.252.408.252.72 0 .384.072.816.216 1.296.168.456.444.888.828 1.296s.9.744 1.548 1.008 1.464.396 2.448.396c1.704 0 3-.432 3.888-1.296.888-.888 1.332-2.256 1.332-4.104v-.684c0-1.656-.468-2.856-1.404-3.6-.936-.768-2.184-1.152-3.744-1.152-.312 0-.54-.108-.684-.324s-.216-.456-.216-.72.072-.504.216-.72.372-.324.684-.324c.936 0 1.74-.132 2.412-.396.696-.288 1.212-.768 1.548-1.44.36-.672.54-1.596.54-2.772 0-1.56-.348-2.712-1.044-3.456-.696-.768-1.8-1.152-3.312-1.152-.936 0-1.716.12-2.34.36-.6.24-1.068.564-1.404.972-.336.384-.564.804-.684 1.26-.12.432-.18.84-.18 1.224 0 .36-.096.648-.288.864-.168.192-.456.288-.864.288-.336 0-.588-.036-.756-.108s-.288-.216-.36-.432-.108-.492-.108-.828c0-.504.096-1.08.288-1.728.216-.648.576-1.284 1.08-1.908.528-.624 1.248-1.14 2.16-1.548s2.088-.612 3.528-.612c1.296 0 2.436.204 3.42.612s1.752 1.08 2.304 2.016c.576.912.864 2.148.864 3.708 0 1.632-.288 2.952-.864 3.96-.552 1.008-1.248 1.716-2.088 2.124 1.056.432 1.932 1.116 2.628 2.052s1.044 2.196 1.044 3.78v.684c0 1.848-.336 3.324-1.008 4.428s-1.584 1.908-2.736 2.412c-1.128.504-2.388.756-3.78.756z" fill="#fff"/></svg>