<svg width="52" height="53" viewBox="0 0 52 53" fill="none" xmlns="http://www.w3.org/2000/svg">
<path d="M52 31.6971C52 45.7921 32.2244 53 18.0408 53C3.85724 53 0 43.2611 0 29.166C0 15.071 8.4898 5.54294 24.4082 0.691783C40.3265 -4.15938 52 17.6021 52 31.6971Z" fill="#867AB6" fill-opacity="0.75"/>
<path d="M18.797 41C18.557 41 18.305 40.916 18.041 40.748C17.801 40.58 17.681 40.352 17.681 40.064V36.572C17.681 35.588 17.969 34.676 18.545 33.836C19.145 32.996 19.901 32.204 20.813 31.46C21.725 30.716 22.697 29.984 23.729 29.264C24.785 28.544 25.769 27.8 26.681 27.032C27.617 26.24 28.373 25.412 28.949 24.548C29.549 23.684 29.849 22.724 29.849 21.668C29.849 20.9 29.669 20.156 29.309 19.436C28.949 18.716 28.409 18.116 27.689 17.636C26.993 17.156 26.093 16.916 24.989 16.916C23.765 16.916 22.733 17.276 21.893 17.996C21.053 18.692 20.633 19.748 20.633 21.164C20.633 21.404 20.525 21.632 20.309 21.848C20.093 22.04 19.781 22.136 19.373 22.136C19.013 22.136 18.737 22.028 18.545 21.812C18.377 21.596 18.293 21.212 18.293 20.66C18.293 19.508 18.593 18.488 19.193 17.6C19.793 16.688 20.597 15.98 21.605 15.476C22.637 14.948 23.789 14.684 25.061 14.684C26.453 14.684 27.677 14.996 28.733 15.62C29.813 16.22 30.665 17.048 31.289 18.104C31.913 19.136 32.225 20.3 32.225 21.596C32.225 22.868 31.925 24.02 31.325 25.052C30.749 26.084 30.005 27.02 29.093 27.86C28.181 28.7 27.209 29.48 26.177 30.2C25.145 30.92 24.173 31.616 23.261 32.288C22.349 32.96 21.593 33.644 20.993 34.34C20.417 35.036 20.129 35.78 20.129 36.572V38.804H31.613C31.853 38.804 32.057 38.912 32.225 39.128C32.393 39.32 32.477 39.572 32.477 39.884C32.477 40.172 32.393 40.436 32.225 40.676C32.057 40.892 31.853 41 31.613 41H18.797Z" fill="white"/>
</svg>
