<svg width="15" height="15" viewBox="0 0 15 15" fill="none" xmlns="http://www.w3.org/2000/svg">
<path d="M7.52347 9.07277L12.3122 13.9085L13.2981 14.8944C13.439 15.0352 13.6737 15.0352 13.8615 14.8944L14.8944 13.8615C15.0352 13.6737 15.0352 13.439 14.8944 13.2981L9.07277 7.52347L14.8944 1.70188C15.0352 1.56103 15.0352 1.32629 14.8944 1.1385L13.8615 0.105634C13.6737 -0.0352113 13.439 -0.0352113 13.2981 0.105634L7.52347 5.92723L1.70188 0.105633C1.56103 -0.0352119 1.32629 -0.0352119 1.1385 0.105633L0.105634 1.1385C-0.0352107 1.32629 -0.0352107 1.56103 0.105634 1.70188L5.92723 7.52347L1.09155 12.3122L0.105633 13.2981C-0.0352112 13.439 -0.0352112 13.6737 0.105633 13.8615L1.1385 14.8944C1.32629 15.0352 1.56103 15.0352 1.70188 14.8944L7.52347 9.07277Z" fill="#FC1782"/>
</svg>
