<?xml version="1.0" encoding="utf-8"?>
<!-- Generator: Adobe Illustrator 25.0.1, SVG Export Plug-In . SVG Version: 6.00 Build 0)  -->
<svg version="1.1" id="Calque_1" xmlns="http://www.w3.org/2000/svg" xmlns:xlink="http://www.w3.org/1999/xlink" x="0px" y="0px"
	 viewBox="0 0 2000 2000" style="enable-background:new 0 0 2000 2000;" xml:space="preserve">
<style type="text/css">
	.st0{fill:#2a5886;}
	.st1{fill:#77efe6;}
	.st2{fill:#2a5886;}
	.st3{fill-rule:evenodd;clip-rule:evenodd;fill:#baa86b;}
	.st4{fill:#baa86b;}
</style>
<path class="st0" d="M1504.9,770.1h-188.4c-9.6-11.5-19.2-21.2-32.7-30.8c-11.5-9.6-25-17.3-40.4-23.1
	c-13.5-5.8-28.8-11.5-46.2-15.4c-5.8-1.9-13.5-1.9-21.2-3.8L1353,172l26.9-80.8l-165.4-80.8l-478.8,702
	c-15.4-9.6-34.6-13.5-53.8-13.5H508.8l61.5,251.9l-138.4,203.9l53.8,53.8l7.7,9.6h142.3l9.6,36.5h186.5l-198.1,588.5l-13.5,38.5
	l130.8,88.5l25,17.3l792.2-1152L1504.9,770.1z"/>
<path class="st1" d="M778,1995.2l-28.8-21.2l-134.6-90.4l15.4-42.3l196.1-578.9H641.5l-9.6-36.5H491.5l-9.6-11.5l-57.7-57.7
	l140.4-205.8l-63.5-257.7h180.8c19.2,0,36.5,3.8,51.9,11.5L1216.4,4.7l173.1,84.6l-28.8,86.5l-175,517.3c3.8,0,9.6,1.9,13.5,1.9
	c17.3,3.8,32.7,9.6,46.2,15.4c15.4,5.8,28.8,15.4,42.3,25c11.5,9.6,23.1,19.2,30.8,28.8h188.4l69.2,69.2L778,1995.2z M628,1877.9
	l126.9,86.5l19.2,15.4l786.5-1144.3l-59.6-59.6h-188.4V774c-9.6-11.5-19.2-21.2-30.8-28.8c-11.5-9.6-25-17.3-38.5-23.1
	c-13.5-5.8-28.8-11.5-44.2-15.4c-5.8-1.9-13.5-1.9-19.2-3.8h-7.7L1376,95.1l-155.8-75L737.6,720.1l-3.8-1.9
	c-15.4-7.7-32.7-13.5-50-13.5H516.5L578,952.8l-138.4,201.9l57.7,59.6h144.2l9.6,36.5h190.4L628,1877.9z"/>
<path class="st2" d="M764.6,1951l-115.4-76.9l19.2-51.9L764.6,1951z"/>
<path class="st0" d="M549.2,1150.9l-48.1,44.2l-38.5-38.5l67.3-25L549.2,1150.9z"/>
<path class="st3" d="M718.4,1843.3L1401,850.9H995.3l248.1-738.5l-682.6,994.3h405.7l-250,734.7L718.4,1843.3z"/>
<path class="st0" d="M770.3,1949.1l-71.1-48.1l240.4-707.8H506.9L1245.3,122l25-32.7l71.1,38.5l-13.5,38.5l-226.9,673.1h430.7
	L770.3,1949.1z M689.6,1097.1h382.7L910.7,1576l438.4-638.5H966.5l159.6-475L689.6,1097.1z"/>
<path class="st0" d="M731.9,1910.6l-71.1-48.1l240.4-707.8H468.4L1206.8,83.5l21.2-32.7l75,38.5l-13.5,38.5l-226.9,673.1h430.7
	L731.9,1910.6z M651.1,1058.6h382.7l-161.5,478.9L1310.7,899H928l159.6-475L651.1,1058.6z"/>
<path class="st4" d="M718.4,1843.3L1401,850.9H995.3l248.1-738.5l-682.6,994.3h405.7l-250,734.7L718.4,1843.3z"/>
<path class="st2" d="M1493.3,802.8l38.5,38.5l-65.4,40.4l-26.9-55.8L1493.3,802.8z"/>
<path class="st2" d="M1228,50.8l119.2,57.7l-7.7,23.1l-105.8-61.5L1228,50.8z"/>
<path class="st1" d="M683.8,1210.6L572.3,750.9h109.6c15.4,0,26.9,3.8,36.5,11.5c9.6,7.7,17.3,19.2,19.2,32.7l34.6,182.7l78.8-188.5
	c1.9-5.8,5.8-9.6,9.6-15.4c3.8-3.8,9.6-9.6,13.5-11.5c5.8-3.8,9.6-5.8,15.4-7.7c5.8-1.9,13.5-3.8,19.2-3.8h121.1l-221.1,459.7H683.8
	z"/>
<path class="st0" d="M1001.1,772.1l-205.7,417.3h-94.2L597.3,772.1h84.6c9.6,0,17.3,1.9,25,7.7c5.8,5.8,9.6,11.5,11.5,19.2
	l42.3,219.3c1.9,7.7,3.8,17.3,5.8,28.8c5.8-11.5,9.6-21.2,13.5-30.8l92.3-219.2c1.9-3.8,3.8-5.8,5.8-9.6c1.9-3.8,5.8-5.8,9.6-7.7
	c3.8-1.9,7.7-3.8,11.5-5.8c3.8-1.9,9.6-1.9,13.5-1.9H1001.1z M1066.5,731.7h-65.4h-88.5c-9.6,0-17.3,1.9-26.9,3.8
	c-7.7,1.9-15.4,5.8-21.2,9.6c-7.7,3.8-13.5,9.6-19.2,15.4c-5.8,5.8-9.6,11.5-11.5,19.2l-53.8,128.9l-21.2-115.4
	c-3.8-17.3-13.5-32.7-26.9-44.2c-13.5-11.5-30.8-17.3-50-17.3h-84.6h-51.9l13.5,50L660.7,1199l7.7,30.8h32.7h94.2h25l11.5-23.1
	l205.7-417.3L1066.5,731.7z"/>
<path class="st1" d="M1085.7,1214.4c-13.5,0-26.9-1.9-40.4-3.8c-13.5-3.8-26.9-7.7-38.5-13.5c-11.5-5.8-25-11.5-34.6-19.2
	c-11.5-7.7-21.2-17.3-28.8-26.9l-15.4-19.2l46.2-61.5c5.8-5.8,11.5-11.5,19.2-15.4c7.7-3.8,17.3-5.8,25-5.8
	c11.5,0,23.1,3.8,32.7,11.5l15.4,11.5c3.8,3.8,9.6,5.8,15.4,7.7c1.9,1.9,7.7,1.9,15.4,1.9c7.7,0,13.5-1.9,17.3-3.8
	c3.8-3.8,3.8-9.6,3.8-19.2c0-1.9,0-1.9,0-1.9c-1.9-1.9-3.8-3.8-5.8-3.8c-5.8-1.9-11.5-5.8-17.3-7.7c-9.6-3.8-17.3-5.8-26.9-9.6
	c-9.6-3.8-19.2-7.7-28.8-13.5c-11.5-5.8-23.1-13.5-30.8-23.1c-9.6-9.6-17.3-23.1-21.2-36.5c-5.8-13.5-7.7-30.8-7.7-50
	c0-21.2,3.8-42.3,11.5-61.5c7.7-19.2,19.2-38.5,34.6-53.8c15.4-15.4,32.7-26.9,55.8-36.5c21.2-9.6,46.1-13.5,71.1-13.5
	c13.5,0,26.9,1.9,40.4,3.8c13.5,1.9,25,7.7,36.5,11.5c11.5,5.8,21.2,11.5,30.8,17.3c9.6,7.7,17.3,15.4,25,25l13.5,17.3l-40.4,55.8
	c-5.8,7.7-11.5,13.5-17.3,17.3c-7.7,5.8-17.3,7.7-26.9,7.7s-21.2-3.8-30.8-9.6l-13.5-9.6c-3.8-1.9-7.7-3.8-13.5-5.8
	c-1.9,0-5.8-1.9-11.5-1.9c-5.8,0-9.6,0-11.5,1.9c-1.9,0-3.8,1.9-5.8,3.8c-1.9,1.9-1.9,1.9-1.9,3.8c0,1.9-1.9,5.8-1.9,7.7
	c0,0,1.9,1.9,7.7,3.8c5.8,3.8,11.5,5.8,19.2,7.7c9.6,3.8,17.3,5.8,26.9,9.6c9.6,3.8,19.2,9.6,28.8,13.5
	c11.5,5.8,21.2,13.5,30.8,23.1c9.6,9.6,17.3,21.2,23.1,34.6c5.8,13.5,7.7,28.8,7.7,48.1c0,23.1-3.8,46.2-11.5,67.3
	c-7.7,21.2-21.2,40.4-36.5,55.8c-15.4,15.4-34.6,28.8-57.7,38.5C1137.6,1208.6,1112.6,1214.4,1085.7,1214.4z"/>
<path class="st0" d="M1149.1,768.2c11.5,0,23.1,1.9,34.6,3.8c11.5,1.9,21.2,5.8,32.7,9.6c9.6,3.8,19.2,9.6,26.9,15.4
	c7.7,5.8,15.4,13.5,21.2,21.2l3.8,5.8l-30.8,42.3c-3.8,5.8-7.7,9.6-11.5,11.5c-3.8,1.9-9.6,3.8-15.4,3.8s-13.5-1.9-19.2-5.8
	l-15.4-5.8c-3.8-3.8-9.6-5.8-15.4-7.7c-5.8-1.9-13.5-3.8-19.2-3.8s-13.5,0-19.2,1.9c-5.8,1.9-9.6,3.8-11.5,7.7
	c-3.8,3.8-5.8,7.7-7.7,11.5c-1.9,3.8-1.9,9.6-1.9,15.4c0,5.8,1.9,9.6,3.8,11.5c3.8,3.8,7.7,7.7,13.5,11.5c5.8,3.8,13.5,5.8,21.2,9.6
	c9.6,3.8,17.3,5.8,26.9,9.6c9.6,3.8,19.2,7.7,26.9,13.5c9.6,5.8,17.3,11.5,25,19.2c7.7,7.7,13.5,17.3,19.2,28.8
	c3.8,11.5,7.7,25,7.7,40.4c0,21.2-3.8,42.3-11.5,59.6c-7.7,19.2-17.3,34.6-32.7,50c-13.5,13.5-30.8,25-50,32.7s-42.3,11.5-65.4,11.5
	c-11.5,0-25-1.9-36.5-3.8c-11.5-1.9-23.1-5.8-34.6-11.5c-11.5-5.8-21.2-11.5-30.8-17.3c-9.6-7.7-19.2-15.4-25-23.1l-5.8-5.8
	l36.5-48.1c3.8-3.8,7.7-7.7,13.5-9.6c5.8-1.9,11.5-3.8,15.4-3.8c7.7,0,13.5,1.9,21.2,7.7l15.4,11.5c5.8,3.8,11.5,7.7,19.2,11.5
	c5.8,3.8,15.4,3.8,25,3.8c13.5,0,25-3.8,30.8-9.6c7.7-7.7,9.6-17.3,9.6-32.7c0-5.8-1.9-9.6-3.8-13.5c-3.8-3.8-7.7-7.7-13.5-11.5
	c-5.8-3.8-13.5-5.8-21.2-9.6c-9.6-1.9-17.3-5.8-26.9-9.6c-9.6-3.8-19.2-7.7-26.9-11.5c-9.6-5.8-17.3-11.5-25-19.2
	c-7.7-7.7-13.5-17.3-17.3-28.8c-3.8-11.5-7.7-25-7.7-42.3c0-19.2,3.8-36.5,11.5-53.9c7.7-17.3,17.3-32.7,30.8-46.2
	c13.5-13.5,28.8-25,48.1-32.7C1104.9,772.1,1126.1,768.2,1149.1,768.2z M1149.1,727.8c-28.8,0-55.8,5.8-78.8,15.4
	c-23.1,9.6-44.2,23.1-61.5,40.4c-17.3,17.3-30.8,36.5-38.5,59.6c-9.6,23.1-13.5,46.2-13.5,69.2c0,21.2,3.8,40.4,9.6,57.7
	c5.8,15.4,15.4,30.8,26.9,42.3c5.8,5.8,11.5,11.5,17.3,15.4c-9.6,1.9-19.2,3.8-26.9,7.7c-9.6,5.8-19.2,13.5-25,21.2l-36.5,48.1
	l-19.2,25l21.2,25l5.8,5.8c9.6,11.5,21.2,21.2,32.7,30.8c11.5,7.7,25,15.4,38.5,21.2c13.5,5.8,28.8,11.5,42.3,13.5
	c15.4,3.8,30.8,5.8,46.2,5.8c30.8,0,57.7-5.8,82.7-15.4c25-9.6,46.2-25,63.5-42.3s30.8-38.5,40.4-63.5c9.6-23.1,13.5-48.1,13.5-75
	c0-21.2-3.8-38.5-9.6-55.8c-5.8-15.4-15.4-30.8-26.9-42.3c-5.8-7.7-13.5-13.5-21.2-19.2c7.7-1.9,13.5-3.8,21.2-9.6
	c9.6-5.8,17.3-13.5,23.1-23.1l30.8-42.3l17.3-25l-19.2-25h-9.6c-7.7-9.6-17.3-19.2-28.8-26.9c-11.5-7.7-23.1-15.4-34.6-21.2
	c-11.5-5.8-25-9.6-40.4-13.5C1178,727.8,1164.5,727.8,1149.1,727.8z"/>
</svg>
