<svg xmlns="http://www.w3.org/2000/svg" xmlns:xlink="http://www.w3.org/1999/xlink" version="1.1" id="Calque_1" x="0px" y="0px" enable-background="new 0 0 544 38" xml:space="preserve" viewBox="0 1.7 544 36.3">
<g>
	<path fill="#FFFFFF" d="M544,38.001v-3.263h0.001V14.711c-6.537-1.039-13.183-1.37-19.8-1.312   c-7.855,0.069-15.633,2.002-23.334,0.861c-18.506-2.743-37.296-3.281-55.919-1.444c-8.69,0.857-17.327,2.217-26.028,2.956   c-38.335,3.252-76.721-3.714-115.107-6.272c-4.592-0.306-13.717-1.599-18.275-2.23c-19.108-2.643-38.404-4.085-57.681-3.423   c-17.992,0.619-35.357,4.868-53.158,6.167c-10.146,0.74-18.419-3.605-27.879-6.369c-13.265-3.875-27.453-1.194-41.007,1.508   C90.179,8.269,74.547,11.385,58.915,14.5c-7.587,1.513-15.257,6.033-22.988,5.738C23.982,19.787,13.5,17,0,14.711v20.025v0.152V38   L544,38.001z"/>
</g>
<g>
	<path fill="none" d="M267.289,23.359c-0.732,0.041-1.466,0.063-2.206,0.043C265.761,23.45,266.509,23.422,267.289,23.359z"/>
	<path fill="none" d="M313.104,27.221c-1.724-0.24-3.477-0.348-5.209-0.527c-0.024-0.002-0.051-0.008-0.076-0.01   c0.027,0.004,0.05,0.01,0.076,0.012C309.628,26.874,311.38,26.98,313.104,27.221z"/>
	<path fill="none" d="M403.484,27.434c3.613-0.244,7.146-1.127,10.678-2.018c-3.53,0.891-7.066,1.771-10.682,2.014   c-9.168,0.617-18.162-2.891-27.351-2.933l0,0C385.32,24.539,394.311,28.047,403.484,27.434z"/>
	<path fill="none" d="M309.223,33.15c-1.09-1.062-2.291-1.979-3.675-2.666c-0.017-0.008-0.032-0.012-0.048-0.021   c0.016,0.009,0.029,0.015,0.047,0.022C306.932,31.174,308.133,32.091,309.223,33.15z"/>
	<path fill="none" d="M383.336,35.623c1.965,0.186,3.877,0.695,5.785,1.225c-1.907-0.529-3.816-1.041-5.783-1.229   c-4.275-0.398-8.349,0.719-12.329,2.381h0.003C374.991,36.338,379.063,35.221,383.336,35.623z"/>
	<path fill="none" d="M462.157,31.195c-0.645,0.01-1.286,0.012-1.935-0.021c-4.722-0.244-9.263-1.646-13.773-3.201   c4.512,1.557,9.054,2.959,13.772,3.201C460.871,31.207,461.514,31.205,462.157,31.195z"/>
	<path fill="none" d="M357.791,27.805c5.95-1.75,11.939-3.291,18.104-3.303C369.73,24.514,363.74,26.055,357.791,27.805z"/>
	<path fill="none" d="M501.674,23.914c-1.344-0.128-2.693-0.203-4.062-0.173c-6.805,0.149-13.356,2.437-19.923,4.44   c6.565-2.004,13.118-4.289,19.924-4.439C498.98,23.713,500.331,23.787,501.674,23.914z"/>
	<path fill="none" d="M487.633,38h0.003c5.476-1.332,10.989-1.873,16.406-0.453c0.513,0.135,1.017,0.288,1.516,0.453h0.008   c-0.503-0.166-1.009-0.32-1.523-0.456C498.623,36.126,493.107,36.667,487.633,38z"/>
	<path fill="none" d="M427.236,32.971c-3.774-0.738-7.666-0.031-11.62,1.084C419.57,32.939,423.462,32.232,427.236,32.971z"/>
	<path fill="#D5E8F6" d="M536.347,34.02c-1.668-0.328-3.318-0.744-4.958-1.219c-9.989-2.886-19.544-7.926-29.715-8.887   c-1.343-0.127-2.692-0.201-4.061-0.172c-6.806,0.15-13.357,2.436-19.924,4.439c-5.127,1.565-10.263,2.946-15.532,3.014   c-0.645,0.01-1.286,0.012-1.936-0.021c-4.72-0.242-9.262-1.646-13.772-3.201c-6.404-2.211-12.75-4.734-19.46-4.72   c-4.354,0.009-8.587,1.093-12.827,2.163c-3.53,0.891-7.064,1.771-10.678,2.018c-9.174,0.613-18.164-2.895-27.354-2.937h-0.001   c-0.079-0.001-0.157,0.004-0.236,0.005c-6.162,0.012-12.152,1.553-18.103,3.303c-0.009,0.004-0.019,0.006-0.026,0.008   c-0.072,0.021-0.146,0.045-0.218,0.065c-2.67,0.788-5.332,1.614-8,2.358c-1.551,0.434-3.13,0.834-4.724,1.188   c-0.096,0.021-0.188,0.045-0.283,0.064c-0.064,0.015-0.132,0.027-0.198,0.041c-1.062,0.227-2.128,0.433-3.198,0.604   c-6.252,1.011-12.599,0.978-18.369-1.44c-2.039-0.854-3.955-1.982-6.045-2.68c-1.183-0.388-2.396-0.623-3.625-0.793   c-1.725-0.24-3.477-0.348-5.209-0.525c-0.027-0.004-0.051-0.01-0.078-0.012c-7.209-0.789-8.297-6.424-15.482-7.685   c-6.313-1.107-17.691,3.776-25.045,4.358c-0.779,0.063-1.528,0.092-2.206,0.043c-12.833-0.901-26.884-4.045-40.081-1.645   c-5.274,0.961-10.427,2.889-15.788,2.867c-9.988-0.037-19.488-6.823-29.299-4.96c-5.5,1.045-10.232,4.716-15.736,5.741   c-7.53,1.402-14.931-2.314-22.354-4.205c-25.221-6.423-51.209,8.335-77.197,6.908c-6.049-0.332-12.025-1.543-18.075-1.842   c-15.439-0.763-18.02,2.885-34.804,6.92C5.25,34.75,0.179,34.811,0,34.736v0.152V38h11.773c3.78-3.801,9.786-5.232,14.861-3.488   c2.064,0.711,3.923,1.934,5.452,3.488h9.981c2.182-1.861,5.628-2.23,8.598-1.783c3.676,0.553,7.297,1.979,10.992,1.576   c2.9-0.316,5.562-1.736,8.41-2.367c2.849-0.633,6.325-0.201,7.89,2.262c0.064,0.101,0.105,0.209,0.162,0.313h17.58   c1.047-1.502,2.387-2.966,4.182-3.229c1.73-0.254,3.396,0.68,5.125,0.938c4.952,0.747,9.431-4.013,14.411-3.479   c3.192,0.342,6.1,2.849,9.254,2.246c1.878-0.358,3.419-1.781,5.294-2.154c3.108-0.616,5.825,2.699,5.672,5.677h4.04   c0.291-0.824,0.639-1.603,1.293-2.168c1.046-0.901,2.549-0.979,3.931-1.011c12.11-0.271,24.222-0.545,36.333-0.815   c2.469-0.055,5.262,0.021,6.932,1.839c0.565,0.615,0.917,1.357,1.139,2.155h10.628c0.355-0.599,0.772-1.149,1.294-1.617   c1.796-1.606,4.369-1.923,6.768-2.149c8.906-0.846,17.831-1.492,26.765-1.943c3.813-0.191,8.087-0.186,10.843,2.456   c0.952,0.911,1.617,2.054,2.178,3.255h17.196c0.491-0.588,1.027-1.145,1.628-1.652c2.004-1.693,4.439-2.766,6.968-3.537   c4.082-1.246,12.378-3.386,16.606-3.957c5.077-0.686,6.151-0.942,11.319,1.611c0.017,0.008,0.031,0.014,0.048,0.021   c1.385,0.687,2.585,1.604,3.676,2.664c1.467,1.429,2.731,3.113,3.959,4.851h57.826c3.98-1.662,8.055-2.78,12.329-2.381   c1.966,0.187,3.876,0.698,5.783,1.228c1.549,0.428,3.096,0.864,4.668,1.153h7.701c4.62-0.744,9.239-2.541,13.776-3.847   c0.059-0.016,0.116-0.034,0.176-0.051c0.058-0.018,0.115-0.031,0.174-0.049c3.953-1.115,7.846-1.822,11.62-1.084   c0.024,0.006,0.05,0.012,0.073,0.018c0.323,0.064,0.646,0.138,0.968,0.226c0.32,0.086,0.641,0.188,0.961,0.298   c0.022,0.008,0.049,0.014,0.071,0.021c0.347,0.119,0.689,0.255,1.032,0.404c2.214,0.965,4.093,2.467,5.92,4.063h51.37   c5.476-1.333,10.99-1.874,16.408-0.456c0.516,0.137,1.021,0.29,1.523,0.456H544v-3.265C541.443,34.797,538.857,34.51,536.347,34.02   z"/>
	<g>
		<path fill="#A9D3EB" d="M504.042,37.547c-5.417-1.42-10.932-0.879-16.406,0.453h17.922    C505.059,37.835,504.555,37.682,504.042,37.547z"/>
		<path fill="#A9D3EB" d="M70.067,35.426c-2.848,0.631-5.509,2.051-8.41,2.367c-3.695,0.4-7.315-1.023-10.992-1.576    c-2.97-0.447-6.416-0.078-8.598,1.783h36.051c-0.056-0.104-0.098-0.213-0.162-0.313C76.392,35.225,72.916,34.793,70.067,35.426z"/>
		<path fill="#A9D3EB" d="M133.965,32.324c-1.875,0.373-3.416,1.795-5.294,2.152c-3.154,0.604-6.063-1.902-9.254-2.244    c-4.98-0.533-9.459,4.226-14.411,3.479c-1.729-0.26-3.395-1.193-5.125-0.939c-1.795,0.264-3.134,1.728-4.182,3.229h43.939    C139.79,35.023,137.073,31.707,133.965,32.324z"/>
		<path fill="#A9D3EB" d="M305.547,30.488c-0.018-0.01-0.031-0.016-0.047-0.023c-5.168-2.555-6.242-2.297-11.318-1.611    c-4.229,0.571-12.525,2.711-16.607,3.957c-2.528,0.771-4.963,1.844-6.968,3.537c-0.602,0.51-1.138,1.064-1.628,1.652h44.204h0.002    c-1.228-1.736-2.492-3.422-3.959-4.85C308.133,32.091,306.932,31.174,305.547,30.488z"/>
		<path fill="#A9D3EB" d="M185.234,34.006c-12.111,0.271-24.222,0.545-36.333,0.816c-1.382,0.031-2.885,0.107-3.931,1.01    c-0.654,0.566-1.002,1.344-1.293,2.168h49.628c-0.222-0.798-0.574-1.54-1.139-2.154C190.496,34.025,187.703,33.951,185.234,34.006    z"/>
		<path fill="#A9D3EB" d="M383.336,35.623c-4.271-0.402-8.345,0.715-12.324,2.377h22.762h0.017    c-1.572-0.289-3.119-0.727-4.668-1.152C387.213,36.318,385.301,35.809,383.336,35.623z"/>
		<path fill="#A9D3EB" d="M238.76,32.289c-8.934,0.451-17.859,1.1-26.765,1.943c-2.399,0.228-4.972,0.543-6.768,2.149    c-0.522,0.468-0.939,1.021-1.294,1.617h47.848c-0.562-1.201-1.227-2.345-2.178-3.255C246.848,32.104,242.573,32.098,238.76,32.289    z"/>
		<path fill="#A9D3EB" d="M11.773,38h20.313c-1.529-1.555-3.388-2.777-5.452-3.488C21.559,32.768,15.553,34.199,11.773,38z"/>
		<path fill="#A9D3EB" d="M429.311,33.532c-0.022-0.009-0.049-0.015-0.071-0.022c-0.32-0.109-0.641-0.211-0.961-0.297    c-0.321-0.088-0.645-0.16-0.968-0.225c-0.023-0.006-0.049-0.014-0.073-0.018c-3.774-0.738-7.667-0.031-11.62,1.084    c-0.059,0.018-0.116,0.03-0.174,0.049c-0.06,0.016-0.117,0.033-0.176,0.051c-4.537,1.305-9.156,3.102-13.776,3.846h0.015h34.757    h0.001c-1.826-1.596-3.706-3.098-5.92-4.063C430,33.787,429.656,33.652,429.311,33.532z"/>
	</g>
</g>
</svg>