<?xml version="1.0" encoding="utf-8"?>
<!-- Generator: Adobe Illustrator 25.0.1, SVG Export Plug-In . SVG Version: 6.00 Build 0)  -->
<svg version="1.1" id="Calque_1" xmlns="http://www.w3.org/2000/svg" xmlns:xlink="http://www.w3.org/1999/xlink" x="0px" y="0px"
	 viewBox="0 0 3500 3500" style="enable-background:new 0 0 3500 3500;" xml:space="preserve">
<style type="text/css">
	.st0{fill:#0A0537;}
	.st1{fill:#F61C83;}
	.st2{fill:#312673;}
	.st3{fill:#6154A7;}
	.st4{fill:#FA1680;}
	.st5{fill:#FFFFFF;}
</style>
<path class="st0" d="M2134.1,9970"/>
<g>
	<g>
		<path class="st0" d="M2654.4,1592.7c-14.2,3.6-28.7,6.1-43.2,7.8c-7.7,0.9-7.8,0.9-8,9c-0.4,17-1.2,34-2.7,50.9
			c-4.1,46-12,91.1-30.2,133.9c-21.8,51.3-58.2,88.7-107.8,113.4c-7.7,3.8-11.1,8.3-12.5,16.9c-8.8,52.7-21.6,104.4-41.6,154.1
			c-2.3,5.6-2.5,10.9-0.7,16.5c4.5,14.6,9.1,29.3,13.4,44c4.8,16.4,7.6,33.1,7.5,50.2c0,8.4-0.8,16.7-3,24.7
			c-1.3,4.9-0.8,8.9,1.2,13.4c2,4.5,3.9,9.1,5.6,13.8c0,0,9.6,36.7-8.7,66.7c-5,8.2,7.4,25.6-10.6,45.6c-3.5,3.9-5.6,24.9-6,30.3
			c-1.4,20.9-8.9,39.6-23,55.2c-3.3,3.7-4.9,7.2-5.1,12.3c-0.7,20.2-7.2,38.5-19.8,54.5c-2.8,3.6-4.1,7-4.3,11.7
			c-1.1,21.9,1.2,38.6-13.6,55.2c-3.3,3.7-5.3,9.4-3.6,16c4.1,16.7-0.6,45.3-16.9,64.2c-3.8,4.4-6.5,8-5.4,13.2
			c7.2,32.2,6.3,42.7-20.3,81.2c-3.9,5.7-4.7,9.6-5.4,16.5c-1.4,14.9-7.9,28.1-16.2,40.4c-2.4,3.5-2.5,6.4-2.6,11
			c-0.7,24.4-15.5,31.5-15.5,31.5c0,34.6-23.9,42.7-23.9,42.7c-2,45.7-29,55.6-29,55.6c-4.8,2.1-7.9,4.9-10.4,9.7
			c-9.6,18.6-23.8,32.8-43,41.6c-4.5,2.1-7.3,4.7-9.5,9.3c-8.6,18.3-21.9,32.5-39.7,42.2c-4,2.2-6.5,4.8-8.6,9
			c-9.7,19.7-24,35.1-44.2,44.5c-4.5,2.1-7.3,4.9-8.9,10.2c-5.9,19-19.5,34.5-37.8,42.4c-5.5,2.4-8.4,5-10.2,10.1
			c-11.3,32.1-34.2,51.7-66.5,60.7c-6.6,1.8-8.6,6.7-14.1,11c-31.3,24.9-64.7,13.5-64.7,13.5c-22.5,21.5-60,11.1-60,11.1
			c-19.5,11.5-36.9,11.2-58.8,8.5c-62.8,11.3-81-32.4-81-32.4c-40.9,2.4-47.2-27.9-47.2-27.9c-29.7-1.5-48.2-28-48.2-28
			c-20.7-7.4-37.6-19.9-49.2-38.9c-2.6-4.2-5.7-6.7-11.2-7.7c-19.6-3.7-36.5-15.5-46.4-32.8c-3-5.2-5.9-7.8-11.1-9
			c-33.1-7.6-55.3-28.2-67.8-59.2c-2.6-6.4-6.1-10.1-12.5-12.7c-13.9-5.6-24.7-15.7-34-27.2c-2.6-3.3-5.2-5.3-9.8-5.7
			c-30.6-2.3-54.2-17-71.7-41.8c-3.3-4.7-6.8-7.3-12.6-8.3c-22.8-3.9-41.3-16.1-58.4-30.9c-0.5-0.5-1.3-1.3-1.8-1.8
			c-8.7-9.8-18.8-15.6-32.7-17c-14.6-1.5-27.9-8.7-39.8-17.6c-3.3-2.4-6.5-4.2-10.9-4c-28.5,1.1-52.5-10.2-74-27.8
			c-5.8-4.8-11.4-9.9-16.7-15.2c-2.8-2.9-6.6-4.7-10.7-4.9c-26.9-1.6-49.2-13.3-68.1-31.9c-7.8-7.7-15.1-16-21.5-24.9
			c-2.6-3.7-5.5-6.1-10.1-7.4c-17.8-4.9-34.4-13.3-45.5-27.8c-21.9-28.3,4.7-66.1,4.7-66.1c-4.5-24.3-1-47.1,12.2-68.2
			c2.8-4.5,3.7-8.5,3-14c-2.8-20.7,0.7-40.6,11.4-58.7c2.5-4.3,3.3-8.1,2.5-13.1c-3.4-19.9-0.7-39.2,8.4-57.4
			c2-4.1,2.6-7.7,1.9-12.3c-3.3-21.7-0.4-42.5,10.8-61.8c2.5-4.3,3.2-8.2,1.5-13.5c-6-19-3.7-39.5,6.8-56.4c3.1-5.1,4-8.9,2.6-14.1
			c-9.1-32.8-1.6-62,19.8-87.9c4.4-5.3,6-10.2,5.2-17.1c-1.6-14.9,2-29.1,7.7-42.8c1.6-3.9,2.2-7.1,0.4-11.3
			c-12.5-28-10.8-55.8,2.7-82.9c2.6-5.1,3.2-9.5,1.3-15c-7.4-21.9-5.5-44-0.7-66.1c0.2-0.7,0.5-1.8,0.7-2.5
			c4.5-12.3,4.8-24-0.6-36.9c-5.7-13.6-5.6-28.7-3.5-43.4c0.6-4,0.6-7.7-1.6-11.5c-14.5-24.6-16.1-51.1-10.8-78.4
			c1.4-7.4,3.2-14.8,5.4-22c1.2-3.9,1-8.1-0.8-11.7c-11.4-24.4-11.8-49.6-4.4-75.1c3.1-10.6,6.9-20.9,11.7-30.8
			c2-4.1,2.8-7.7,1.7-12.4c-4.1-18-2.5-35.7,2.8-53.3c5.6-19,13.9-36.8,23.9-53.8c2.4-4.2,3.9-8,2.1-13.1
			c-18.5-53-31.1-107.5-40.5-162.8c-8.2-48.2-21.8-94.7-37.6-140.8c-13-37.8-25.3-75.8-33.7-115c-5.4-25.2-8.6-50.6-7.6-76.4
			c0.5-12.5-2.9-24.4-4.2-36.7c-2.7-24.9-3.7-49.8-5-74.8c-1.9-39.6-3-79.2-6.4-118.8c-1-11.6-2.6-23.2-4.4-34.7
			c-0.6-4-2-7.7-4.1-11.2c-19.1-31.8-27.6-66.9-31.4-103.4c-1.5-14.8-2.6-29.7-2.2-44.5c0.2-6.1-1.7-12-5.3-16.9
			c-26.7-36.2-54.3-71.7-82.5-106.8c-27.2-33.9-46.1-71.6-55-114.2c-3.8-18-5.6-36.1-3.6-54.6c5.6-51.8,47.7-86.5,99.8-81.9
			c47.2,4.1,90.1,20.8,130.3,44.6c105,62.1,208.3,127,309,195.8c56,38.2,108.6,80.6,158.2,126.8c54.9,51.2,108.7,103.4,158.9,159.1
			c3.4,3.7,6.8,5.6,12,5.5c83.7-1.1,164.2,15.9,242.3,44.7c14.1,5.2,27.9,10.9,41.7,16.7c4.9,2.1,9.3,2.3,14.4,0.8
			c12.4-3.9,25-7.1,37.8-9.5c5.4-1,9.9-3.3,14.1-6.9c75.3-64.3,151.1-127.9,224.9-193.9c32-28.6,62.6-58.9,93.7-88.6
			c38.8-37.1,77.5-74.3,116.2-111.4c15.5-14.9,33.9-24.4,54.4-30.6c20.2-6.1,40.9-9.4,61.7-12.2c8.8-1.2,16.3-3.8,23.1-10
			c16.7-15.3,37.1-24.9,57.9-33c28.2-10.9,59.2,2.8,69.8,31.3c12.2,32.8,21.6,66.5,26,101.4c0.2,2,0.5,4,0.5,6
			c0,10.1,3.4,17.3,12.4,23.8c12.9,9.3,19.5,23.6,19.2,40c-0.4,20.7-0.1,41.3,0.1,62c0.2,23.2-9.1,43.4-20.5,62.9
			c-15.3,25.9-34.9,48.7-53.1,72.6c-25.5,33.4-56.1,61.5-88.4,87.9c-4.4,3.6-7.3,8.7-8.3,14.3c-2.2,13.1-5.9,25.9-10.1,38.4
			c-3.3,9.9-3.1,9.4,5.8,12.8c25.9,9.7,51.2,20.8,75.6,34c45.3,24.5,85.7,55.1,119.1,94.6c11.9,14,22.5,28.9,31.6,44.9
			c2.8,5,6.5,7.8,11.7,9.8c92.3,35.4,152.7,100.9,175.1,196.9C2891.7,1417.8,2793.2,1557.6,2654.4,1592.7z"/>
		<path class="st1" d="M1706.4,3280c-23.7,0-39.8-8-49.8-15.7c-8.5-6.5-13.9-13.6-16.8-18.4c-28.8-0.3-43.2-16.3-48.6-28.7
			c-25-3.8-41.8-22.2-47.1-28.8c-22.4-8.6-39.6-22.6-51.3-41.7c-1.3-2.2-2.3-3-5.2-3.6c-22.2-4.2-41.3-17.8-52.5-37.1
			c-2.2-3.8-3.3-4.2-5.3-4.7c-35.1-8-60.1-29.8-74.2-64.6c-1.7-4.3-3.5-6.1-7.6-7.8c-13.6-5.5-25.6-15-37.6-29.8
			c-1.8-2.3-2.3-2.3-3.4-2.4c-32.4-2.5-58.8-17.8-78.3-45.6c-2.1-3-3.7-4.1-6.7-4.6c-27.4-4.7-48-20.1-62.8-33
			c-0.9-0.8-2-1.9-2.6-2.6c-7.6-8.6-15.9-12.9-26.9-14c-14.2-1.4-28.7-7.8-44.3-19.3c-2.7-2-3.8-2.3-5.2-2.3
			c-28.1,1.1-54.3-8.7-80.1-29.9c-6.1-5-11.9-10.3-17.4-15.9c-1.3-1.4-3-2.2-4.8-2.3c-27.4-1.6-52.3-13.2-73.9-34.5
			c-8.4-8.3-16-17.1-22.5-26.1c-1.7-2.4-3-3.3-5.2-3.9c-22.3-6.2-39.2-16.6-50.3-31c-21.8-28.3-4.1-62.8,2.3-73.5
			c-4-25.8,0.7-49.7,14-71c1.7-2.8,2.1-4.7,1.7-8c-3.2-23.3,1.1-45,12.6-64.5c1.5-2.5,1.8-4.3,1.4-7c-3.7-22-0.6-43.2,9.2-62.9
			c1.2-2.4,1.5-4.2,1.1-6.9c-3.8-24.8,0.2-47.6,11.9-67.7c1.3-2.2,1.6-3.5,0.7-6.3c-6.8-21.6-4-44.9,7.7-63.9c2.3-3.8,2.1-5,1.6-6.9
			c-9.7-34.7-2.4-67,21.5-96c3-3.6,3.7-6,3.2-10.3c-1.6-14.6,1-29.6,8.4-47.3c1.1-2.7,0.9-3.2,0.5-4.2
			c-13.2-29.7-12.3-60.1,2.8-90.6c1.6-3.3,1.8-5.2,0.9-8.1c-8.9-26.3-5.2-51.7-0.9-70.9c0.2-1.1,0.7-2.6,1.1-3.6
			c3.9-10.8,3.8-20.1-0.5-30.4c-5.5-13.2-6.9-28.9-4.1-48.1c0.5-3.3,0.2-4.5-0.5-5.6c-14.3-24.2-18.2-51.9-11.9-84.6
			c1.5-7.8,3.4-15.5,5.7-22.9c0.6-1.8,0.4-3.7-0.3-5.3c-11.6-24.9-13.3-52.3-4.9-81.4c3.3-11.3,7.4-22.2,12.2-32.2
			c1.3-2.7,1.5-4.2,1-6.4c-4.2-18.3-3.3-37.2,2.9-57.9c5.5-18.6,13.6-36.8,24.8-55.8c2-3.4,1.9-4.2,1.4-5.5
			c-17-48.5-30.3-102.2-40.9-164.2c-7.1-41.7-19-86-37.3-139.4c-12.6-36.5-25.4-75.9-34-116.1c-6.2-28.7-8.7-54.4-7.8-78.6
			c0.3-7.2-0.9-14.5-2.2-22.2c-0.7-4.3-1.4-8.7-1.9-13.2c-2.5-23.1-3.6-46.6-4.7-69.2l-0.3-6.1c-0.5-10.6-1-21.4-1.4-31.8
			c-1.2-28.4-2.5-57.8-5-86.6c-0.9-10.3-2.3-21.5-4.3-34c-0.5-2.9-1.4-5.5-2.9-8c-17.8-29.5-28.1-63.6-32.7-107.1
			c-1.3-12.5-2.7-29.1-2.2-45.7c0.1-4-1.1-8.1-3.5-11.3c-24.6-33.4-51.5-68.2-82.3-106.5c-28.8-35.9-47.9-75.6-56.8-118
			c-4.4-20.9-5.6-39.7-3.7-57.4c3-27.4,15.6-51.6,35.7-68.1c20.1-16.5,46.3-24.2,73.8-21.8c44.8,3.9,88.6,18.9,134.1,45.8
			c112.4,66.5,213.6,130.6,309.5,196.2c55.5,37.9,109,80.9,159.2,127.7c45.4,42.3,104.5,98.7,159.5,159.7c2,2.2,3,2.5,5.2,2.5
			c79.9-1,160.2,13.8,245.6,45.3c12.4,4.6,25.4,9.8,42.1,16.9c3,1.3,5.2,1.4,8.2,0.4c13.1-4.1,26.1-7.4,38.8-9.7
			c3.7-0.7,6.7-2.2,9.9-4.9c17.1-14.6,34.6-29.5,51.4-43.8c57.2-48.7,116.4-99,173.4-149.9c23.5-21,46.7-43.4,69.1-65
			c8-7.7,16.2-15.6,24.4-23.4c29.8-28.5,60.1-57.6,89.4-85.7c8.9-8.6,17.9-17.2,26.8-25.7c15.5-14.9,34.5-25.6,58-32.7
			c21.5-6.5,43-9.8,63.1-12.5c8-1,13.4-3.4,18.2-7.7c18.9-17.2,41.3-27.2,60.7-34.7c16-6.2,33.3-5.8,48.6,1.2
			c15.3,6.9,26.9,19.4,32.8,35.4c13.7,37,22.4,70.8,26.5,103.4l0.1,0.6c0.2,1.9,0.5,4.1,0.5,6.5c0,7.5,2.3,11.8,8.7,16.5
			c15.1,10.9,23.3,27.8,22.9,47.4c-0.4,19.3-0.1,39,0.1,58l0,3.7c0.3,26.4-10.9,48.9-21.8,67.5c-11.7,20-26.1,38.2-39.9,55.8
			c-4.5,5.8-9.2,11.8-13.8,17.7c-28.3,37.2-62.9,67.3-89.8,89.5c-2.7,2.2-4.5,5.4-5.1,8.9c-2.1,12.2-5.4,24.8-10.4,39.8
			c-0.1,0.4-0.3,0.8-0.4,1.2l0.8,0.3c28.3,10.6,53.4,21.9,76.7,34.5c49.6,26.9,89.4,58.5,121.7,96.7c13,15.4,23.6,30.6,32.5,46.3
			c1.6,2.9,3.5,4.4,7.1,5.8c47.7,18.3,87.1,44.6,117.2,78.1c30.6,34.2,52,76.3,63.4,125.2c17.8,76.3,5.1,153.9-35.8,218.3
			c-19.3,30.5-44,56.7-73.4,78.1c-29.7,21.6-62.7,37.1-98.2,46l0,0c-14,3.5-28.6,6.1-44.4,8c0,0,0,0,0,0c0,0.1,0,0.2,0,0.2
			c-0.5,19.6-1.3,36-2.7,51.5c-6.5,72.6-20.8,112.8-30.9,136.7c-22.2,52.3-59.9,92-112.1,117.9c-5.2,2.6-6.7,4.6-7.6,10.4
			c-9.8,59.1-23.6,110.1-42.2,155.9c-1.5,3.6-1.6,6.8-0.5,10.4l0,0.1c4.4,14.4,9,29.2,13.4,44c5.3,18.3,7.9,35.6,7.9,52.8
			c0,10-1.1,18.9-3.3,27.1c-0.7,2.7-0.5,4.6,0.7,7.4c2.2,5,4.1,9.7,5.8,14.3l0.3,0.8c0.4,1.6,10.3,40.6-9.6,73.5
			c-0.2,1.1,0,4.1,0.3,6.4c0.9,9.2,2.3,24.5-11.5,40.3c-1.5,3.3-3.4,16.4-4.1,25.4c-1.6,23.4-10.1,43.8-25.3,60.6
			c-2,2.2-2.6,3.8-2.8,6.6c-0.8,22.3-8.1,42.4-21.7,59.7c-1.7,2.1-2.3,3.8-2.4,6.6c-0.2,3.5-0.3,6.9-0.4,10.2
			c-0.5,17.6-0.9,34.2-15.5,50.6c-1,1.2-2.6,3.7-1.6,7.9c4.7,19-0.3,50.7-18.8,72.2c-3.4,4-3.6,4.8-3.4,5.4
			c7.7,34.2,6.5,47.3-21.7,88.3c-2.7,3.9-3.2,6.1-3.8,12.2c-1.4,14.6-7,28.8-17.7,44.6c-0.8,1.2-1,2-1.1,6.2
			c-0.6,20.3-9.7,31.1-15.7,36c-1.5,26.5-15.9,38.7-24.1,43.7c-3.9,44.5-30.6,56.8-34.2,58.2c-2.9,1.3-4.4,2.6-5.9,5.5
			c-10.7,20.9-26.6,36.3-47.2,45.7c-2.7,1.2-3.9,2.4-5.1,5c-9.6,20.2-24.2,35.8-43.6,46.3c-2.4,1.3-3.6,2.6-4.8,5.1
			c-11.1,22.5-27.4,38.9-48.5,48.7c-2.3,1.1-3.3,2-4.2,4.8c-6.7,21.6-22.3,39.1-42.8,48c-4,1.8-4.6,2.8-5.3,4.8
			c-11.9,34-36.3,56.3-72.6,66.4c-1.8,0.5-2.8,1.4-5.2,4c-1.5,1.5-3.3,3.5-5.7,5.4c-27.6,21.9-56.4,18.8-68,16.3
			c-21.5,16.8-50.6,12.9-60.9,10.8c-21.1,11.3-40.4,10.4-59.9,8.1C1719.2,3279.4,1712.6,3280,1706.4,3280z M1650.9,3227.4l2.5,5.9
			c0.6,1.4,16.7,36.8,71.1,27l1.3-0.2l1.3,0.2c22.3,2.7,36.7,2.4,53.1-7.3l3.3-1.9l3.7,1c0.3,0.1,32.9,8.7,51.4-9l4-3.8l5.2,1.8
			c1.1,0.4,29.3,9.3,56.2-12c1.4-1.1,2.5-2.3,3.8-3.6c3-3.2,6.7-7.1,13.5-9c30.6-8.5,50.4-26.6,60.4-55c3.2-9.1,9.4-12.9,15.1-15.3
			c15.7-6.8,27.6-20.2,32.8-36.8c2.3-7.4,6.7-12.4,13.7-15.7c17.5-8.2,30.5-21.4,39.9-40.3c2.9-5.9,6.7-9.9,12.4-12.9
			c15.9-8.6,28-21.5,35.9-38.2c3-6.4,7.3-10.6,13.9-13.6c16.8-7.7,29.9-20.4,38.7-37.6c3.4-6.7,8-11,14.9-13.9l0.4-0.2
			c1.7-0.7,21.5-10,23.1-47.6l0.3-6.3l5.8-1.8c1.3-0.5,17.8-7.5,17.8-34.2v-6l5-2.1c1.1-0.6,10-6.4,10.5-23.7
			c0.2-4.9,0.3-10.1,4.2-15.8c8.9-13.2,13.6-24.7,14.7-36.2c0.8-8.2,2-13.7,6.9-20.7c25.8-37.5,25.3-45.7,18.9-74.2
			c-2.2-10,3.5-16.7,7.3-21.1c13.8-16.1,18.5-41.7,15-56.2c-2.2-8.9-0.1-17.7,5.6-24.2c10.2-11.4,10.5-22.4,10.9-39.1
			c0.1-3.4,0.2-6.9,0.4-10.6c0.3-6.5,2.3-11.7,6.3-16.8c11.2-14.2,17.2-30.8,17.9-49.2c0.3-7.1,2.5-12.7,7.4-18
			c12.4-13.8,19.4-30.5,20.7-49.8c0.7-10.8,2.8-29.7,8.2-35.7c9-10.1,8.2-18.7,7.4-27c-0.5-5.8-1.1-11.8,2.2-17.2
			c15.1-24.8,8.6-55.7,7.7-59.4c-1.5-4.1-3.2-8.3-5.2-12.7c-2.9-6.6-3.5-12.7-1.7-19.4c1.8-6.6,2.7-14,2.7-22.4
			c0-15.5-2.3-31.1-7.2-47.7c-4.3-14.6-8.8-29.4-13.3-43.7l0-0.1c-2.4-7.7-2.1-15,1-22.5c18-44.6,31.5-94.4,41.1-152.2
			c1.9-11.5,7-18.3,17.4-23.5c48.2-24,83-60.6,103.5-108.8c15.6-36.7,24.7-77.2,29.6-131.2c1.3-15.1,2.2-31.1,2.7-50.3
			c0.1-5,0.2-9.3,3.5-13c3.3-3.7,7.6-4.1,12.5-4.7c15.1-1.7,28.8-4.2,42.1-7.5l0,0c33.2-8.4,64.2-22.9,92-43.1
			c27.5-20,50.6-44.6,68.8-73.2c38.3-60.3,50.2-132.9,33.5-204.5c-21.3-91.5-78.4-155.6-169.5-190.5c-7.6-2.9-12.6-7.1-16.4-13.8
			c-8.3-14.8-18.3-29-30.6-43.5c-30.7-36.4-68.8-66.7-116.5-92.5c-22.6-12.2-46.9-23.2-74.5-33.5l-1.1-0.4c-5-1.9-9.7-3.6-11.8-9
			c-1.7-4.6-0.4-8.6,1.7-14.7c4.7-14.1,7.8-25.9,9.7-37.1c1.3-7.8,5.4-14.8,11.4-19.8c26.2-21.5,59.7-50.8,87-86.5
			c4.6-6,9.3-12.1,13.9-17.9c13.5-17.1,27.4-34.9,38.5-53.8c10.2-17.3,19.5-36.3,19.3-58.2l0-3.7c-0.2-19.2-0.4-39-0.1-58.6
			c0.3-13.8-5.1-25-15.4-32.5c-11-7.9-16.2-17.8-16.2-31.1c0-1.2-0.2-2.6-0.4-4.2l-0.1-0.7c-4-31.2-12.3-63.8-25.5-99.4
			c-4.2-11.4-12.5-20.4-23.3-25.2c-10.9-4.9-23.3-5.2-34.7-0.8c-17.9,6.9-38.4,16-55.1,31.2c-7.5,6.9-16.4,10.8-28,12.3
			c-19.3,2.5-40,5.7-60.3,11.9c-20.7,6.3-37.3,15.6-50.7,28.5c-8.9,8.6-17.9,17.1-26.8,25.7c-29.3,28.1-59.6,57.2-89.4,85.7
			c-8.1,7.8-16.3,15.7-24.3,23.3c-22.5,21.7-45.9,44.2-69.6,65.5c-57.1,51-116.4,101.5-173.7,150.2c-16.9,14.3-34.3,29.2-51.4,43.8
			c-5.5,4.7-11.5,7.7-18.3,8.9c-12,2.2-24.3,5.3-36.7,9.2c-7.1,2.2-13.7,1.9-20.6-1.1c-16.5-7-29.2-12.1-41.3-16.6
			c-83.3-30.7-161.5-45.2-239.1-44.2c-7.5,0.1-13.5-2.6-18.8-8.5c-54.5-60.4-113.3-116.5-158.4-158.6
			c-49.5-46.2-102.4-88.6-157.1-126c-95.6-65.3-196.5-129.3-308.5-195.5C820.4,256.2,779,242,737,238.4c-47.1-4.1-85,27-90.1,73.9
			c-1.7,15.8-0.6,32.7,3.4,51.8c8.3,39.6,26.2,76.8,53.2,110.4c30.9,38.5,58,73.5,82.7,107.1c4.8,6.5,7.3,14.5,7,22.6
			c-0.5,15.6,0.9,31.3,2.1,43.3c4.3,40.8,13.9,72.5,30.2,99.7c2.7,4.5,4.4,9.3,5.3,14.4c2.1,13,3.6,24.6,4.5,35.3
			c2.5,29.1,3.8,58.7,5,87.4c0.5,10.4,0.9,21.2,1.4,31.7l0.3,6.1c1.1,22.4,2.2,45.6,4.6,68.2c0.4,4,1.1,8,1.8,12.2
			c1.4,8.2,2.8,16.7,2.4,25.8c-0.8,22.7,1.6,46.9,7.4,74.2c8.4,39.3,21,78,33.4,114c18.7,54.3,30.7,99.5,38,142.2
			c10.4,61,23.5,113.8,40.1,161.3c3,8.7,0.3,15.3-2.9,20.6c-10.4,17.7-17.9,34.6-23,51.8c-5.2,17.6-6.1,33.5-2.6,48.7
			c1.5,6.3,0.7,11.9-2.3,18.3c-4.4,9.1-8.1,19-11.1,29.4c-7.3,25.2-6,47.7,3.9,68.8c2.6,5.6,3.1,12.1,1.2,18.2
			c-2.1,6.8-3.8,13.9-5.2,21c-5.4,28.2-2.3,51.8,9.7,72.1c3.7,6.3,3.5,12.3,2.8,17.3c-2.3,16.1-1.4,28.4,2.9,38.6
			c6,14.5,6.3,28.3,0.7,43.5c-0.1,0.4-0.3,1-0.4,1.3c-5.6,25.2-5.5,44.1,0.4,61.3c2.6,7.5,2,14.3-1.8,21.9
			c-12.8,25.8-13.6,50.4-2.5,75.3c3.4,7.6,1.6,13.8-0.3,18.4c-6.1,14.7-8.4,26.9-7.1,38.4c1,9.1-1.2,16.5-7.3,23.8
			c-20.2,24.5-26.1,50.6-18,79.7c2.1,7.4,1,13.8-3.6,21.2c-9,14.5-11.1,32.4-5.8,49c2.4,7.4,1.6,14-2.3,20.7
			c-9.7,16.7-12.8,35-9.6,55.9c1,6.5,0.1,11.9-2.8,17.7c-8.1,16.2-10.6,33.6-7.6,51.8c1.2,7,0.1,12.9-3.6,19.1
			c-9.4,16-12.9,33.8-10.2,53c1,7.4-0.3,13.6-4.2,19.9c-11.6,18.6-15.2,38.8-11,61.8l0.7,3.7l-2.2,3.1c-0.2,0.3-22.4,32.7-4.9,55.4
			c8.8,11.4,22.1,19.5,40.8,24.6c7.9,2.2,12.2,6.9,15,10.8c5.9,8.2,12.8,16.2,20.5,23.8c18.7,18.4,39.1,28,62.3,29.3
			c6.2,0.4,12.1,3.1,16.6,7.6c5,5.1,10.4,10,16,14.6c22.2,18.2,44.5,26.7,68,25.8c7.3-0.3,12.5,2.8,16.6,5.8
			c13.1,9.7,24.3,14.7,35.4,15.9c15.6,1.6,27.9,8,38.6,20c0.2,0.3,0.8,0.8,1,1c19.4,16.9,36.1,25.8,54.1,28.8
			c7.8,1.3,13.5,5,18.4,12c16.6,23.5,37.8,36,65,38.1c8.3,0.6,12.9,5.1,16.1,9c10,12.4,19.7,20.2,30.4,24.5
			c8.5,3.5,13.9,8.9,17.5,17.7c11.9,29.5,32.1,47.1,61.5,53.8c7.5,1.7,12.6,5.7,16.9,13.2c8.5,14.8,23.2,25.2,40.3,28.5
			c7.7,1.5,13.1,5.3,17.2,11.9c10.1,16.5,24.7,28,44.6,35.1l2.7,1l1.6,2.4c0.1,0.2,16.5,23,41.3,24.2l7.1,0.4l1.2,6.8
			c0.6,2.6,6.5,22.7,37.9,20.8L1650.9,3227.4z M2431.5,2312.3C2431.5,2312.3,2431.5,2312.3,2431.5,2312.3
			C2431.5,2312.3,2431.5,2312.3,2431.5,2312.3z"/>
	</g>
	<g>
		<path class="st0" d="M2158.2,1918.7c4,10.5,4,10.3-6.9,14c-9.6,3.3-19.5,4.5-29.5,3.3c-13-1.5-18.5-7.3-20.6-20.2
			c-4.8-28.5-9.9-57-14.6-85.5c-1.9-11.1-3.2-22.4-4.5-33.6c-0.3-2.9,0.5-5.9,0.7-8.9c0.5-5.9,4-8.6,9.5-9.8
			c10.2-2.2,20.6-1.3,34.6-1.7c18.2,1.1,40.2,2.4,62.1,3.8c6.8,0.5,7.8,1.5,8.3,8.4c0.2,2,0.1,4,0.1,6c-0.1,14.2-0.1,14.2-13,19.4
			c-1.9,0.7-3.6,1.7-5.5,2.3c-23.7,8-32.2,25.8-32.5,49.3C2146.1,1884.2,2151.7,1901.5,2158.2,1918.7z M2173.1,1852.9
			c1.1-4.3,3.1-7.4,6.8-9.2c22.4-11.4,45.8-19.7,70.7-23.3c2-0.3,4-0.2,6-0.3c5.1-0.1,7.9,2.3,9.2,7.2c1.9,7.2,1.7,14.5,1.8,24.2
			c-0.9,18.9-2.6,40.2-6.5,61.2c-3.3,17.7-12.6,32.9-26.4,44.7c-14.4,12.3-27.5,10-35.6-6.9c-10.6-22.2-21.2-44.5-26.2-68.8
			C2170.8,1872,2170.6,1862.5,2173.1,1852.9z M2076,1917.1c-22.4-4.9-40.6-13.8-53.4-31.9c-4.1-5.8-4.8-12.5-2.7-19.1
			c6.8-21.9,20.9-38.6,38.8-54.5C2063.4,1847.6,2071.8,1881.3,2076,1917.1z M2523.4,1590.3c-0.9,20.2-2.1,40.4-3.6,60.6
			c-1.6,21.2-4.1,42.2-8.5,63c-5.3,24.8-12.9,48.8-26.6,70.5c-18.5,29.3-44.9,48.4-77.1,60.2c-9.7,3.6-19.5,6-30.1,6
			c-23.4,0-40.1-10.8-51.1-30.6c-11.9-21.4-18.1-44.7-21.4-69c-2.7-19.8-0.9-39,1.8-58.4c0.7-4.9,2.5-7.1,7.6-8.8
			c8.8-2.9,15.1-8.7,17.4-18.7c3.1-13.3,4.7-26.7,5.7-40.3c2-26.5,2.5-53.1,4.3-79.6c1-15.1,2.1-30.4,5.7-45.3
			c5.5-23,18.9-27.3,38.3-25.5c3,0.3,4.4,2.5,6.1,4.6c5.5,6.6,11,13.4,17.1,19.5c9.4,9.4,19.6,18,30.4,25.7
			c23.2,16.6,48.2,29.3,75.7,37c8.2,2.3,8.2,2.5,8.3,11C2523.5,1578.3,2523.4,1584.3,2523.4,1590.3z M2740.2,1440.1
			c-16.6,22.2-37.2,39.8-61.4,53.3c-65.2,36.4-145.1,29.1-197.3-7.6c-0.3-0.6,0-1.1,0.8-1.4c14.2-3.7,21-12.9,19.2-30.4
			c-0.5-4.6-1.1-9.4-2.6-13.7c-14.2-40.6-38.4-73.6-75-96.9c-7.6-4.9-15.7-8.9-24.2-11.7c-5.5-1.8-6.8-4.8-6.8-10.2
			c0.2-34.1,8.9-66,26.1-95.3c32.4-54.9,80.8-87.2,143.8-95.1c54-6.8,102.9,8,145.5,42.6c1.5,1.2,3.5,2.1,3.1,4.6
			c1-0.5,1.8-0.1,2.5,0.6c0.1,0-0.4,1-0.7,1c-1,0-1.7-0.4-1.8-1.6c-3.9,0.4-6.9-2.1-10.2-3.4c-62.9-26-136.7-0.8-170.4,58.4
			c-1.6,2.9-2.9,6-4.3,8.9c9,0,17.9-0.2,26.4,3.8c21.6,10.4,31.5,35.1,22.5,57.3c-8.7,21.7-32.4,32.5-55.2,25.1
			c-1.9-0.6-3.8-1.3-5.6-2c6.9,40.9,28.2,72.3,63.3,93.8c65.7,40.2,149.1,19.5,189.3-46.3c1.7-2.8,3.4-5.6,5.4-9
			C2773.8,1380,2758.3,1415.9,2740.2,1440.1z"/>
	</g>
	<g>
		<path class="st0" d="M1174.6,2810"/>
	</g>
	<g>
		<path class="st2" d="M1585.4,1942.4c-0.1-0.2-0.1-0.5-0.3-0.7c-0.1-0.1-0.3-0.1-0.5-0.2
			C1584.9,1941.8,1585.2,1942.1,1585.4,1942.4c0.8,0.6,1.2,2.5,2.6,0.6C1587.1,1942.8,1586.2,1942.6,1585.4,1942.4z"/>
	</g>
	<g>
		<path class="st3" d="M1605.4,2120.3C1605.4,2120.4,1605.4,2120.4,1605.4,2120.3L1605.4,2120.3
			C1605.4,2120.3,1605.4,2120.3,1605.4,2120.3z"/>
	</g>
	<g>
		<path class="st3" d="M2465.7,1105.1c-1.9-1.5-1.8-3.2-0.9-5.3c6.5-15.5,1.7-28.4-8.9-40.2c-9.5-10.6-20.6-18.8-33.1-25.3
			c-26.3-13.7-53-26.2-81-36.2c-54.2-19.4-110.1-32.5-166-45.5c-32.6-7.6-65.3-15-98.1-21.5c-28.6-5.6-57.4-10.4-86.3-14.3
			c-22-2.9-44.1-4.9-66.3-6.8c-37.8-3.3-75.7-3.7-113.6-3.6c-3.4,0-7.4,1.6-10.2-2c23.6-8.1,47.5-15.2,72.4-18.3
			c6-0.7,10.7-3.2,15.5-7.4c35.5-30.7,71.5-60.8,107.2-91.3c26.3-22.5,52.5-45.2,78.7-67.8c24.4-21.2,49.1-41.9,72.6-64.2
			c31.6-30,63.1-60.3,94.6-90.4c30.1-28.8,60.2-57.6,90.3-86.3c4.8-4.6,9.8-9,14.7-13.5c3.7-3.5,8.2-5.5,12.9-7.4
			c16.3-6.3,33.4-8.5,50.5-11.3c13.4-2.1,27-3.6,40.1-7.6c7.2-2.2,13.5-5.4,18.6-11.1c4.7-5.2,9.8-10,15.9-13.5
			c0.3,2.4-0.2,4.5-1.6,6.6c-12,17.2-23.6,34.6-35.8,51.6c-23.8,33.3-46.2,67.5-65.3,103.7c-17.2,32.7-33,66.1-47.9,99.9
			c-4.5,10.3-8.7,20.9-11.9,31.7c-3.4,11.6-3.3,23.3,5.9,32.7c7.7,7.9,4.9,9.4-4.1,11.8c-0.6,0.2-1.3,0.1-2,0.3
			c-29.8,8.1-60.2,14-88.8,26c-22.2,9.3-43.8,19.2-54.9,43.2c-10,21.4-21.3,42.2-31.8,63.4c-2.3,4.7-1.1,6.5,4.4,7.1
			c4.3,0.4,8.7,0,13,0.5c19.4,2.4,38.7,5.2,58.1,7.5c18.4,2.2,36.6,5.7,54.9,9c12.1,2.2,23.5,7,35.6,9.2c10,6.3,21.5,8.6,32.5,11.9
			c43.7,13.2,86.9,27.7,127.5,49c33.6,17.6,64.4,39,90.7,66.4c8.5,8.8,16,18.4,23.1,28c-2.3,3.2-4.8,2.4-7,2.4
			c-17.7,0-35.1,2.6-52.4,6.4c-4.5,1-9.2,1.6-13.8,2.4c-4.2-1.6-8,0.5-11.6,1.7c-12.4,4.2-25.6,7.2-34.8,17.7
			C2466.8,1104.6,2466.3,1104.8,2465.7,1105.1z"/>
	</g>
	<g>
		<path class="st2" d="M721.4,362.2c3.9-8.9,7.6-10.6,16-8.1c7.9,2.3,14.2,7.3,20.5,12.2c31.2,24.2,62.5,48.3,93.1,73.3
			c25.2,20.6,50.6,41.3,72.1,65.9c13.5,15.6,27.1,31,41.9,45.5c20.5,20,43,37.5,65,55.8c15.3,12.7,31.1,24.9,45.8,38.4
			c13.4,12.4,25.1,26.5,38.5,38.9c6.1,5.6,11.6,11.8,18.4,16.8c3,2.2,6.2,4.8,8.1,9.7c-13.8-2.1-26.6-6.5-40.5-3.4
			c0.7,5.2,4.5,7.3,8,9.6c12,7.7,24.2,15.2,36.2,23c12.6,8.3,23.6,18.3,32.4,30.7c7.1,10,10.8,21.3,12.3,33.3
			c1.2,9.8-2.3,19-6.3,27.9c-6.2,13.7-14.4,26.2-22.6,38.7c-8.4,12.8-16.3,25.8-23.5,39.4c-8.2,15.6-20.7,27.5-34.5,38.1
			c-35.4,27.4-74.9,46.8-117.4,60.2c-15.8,5-31.8,9.6-48.8,8.5c-5.7-0.4-11.3-0.4-16.7-2.3c-3.9-10.3-4.5-21.3-5.7-32
			c-2.7-25.1-3.8-50.3-4.8-75.5c-0.6-15.9-0.3-31.9-1.7-47.8c-1.9-21.2-1.4-42.5-4-63.5c-2.4-20-3.9-40.2-9.3-59.8
			c-2.4-8.8-5.5-17.2-10.3-24.8c-12.2-19.6-17.4-41.4-20.3-64c-3-23.4-4.2-46.9-3.7-70.5c0.1-6.3-1.6-11.5-5.1-16.7
			c-19-28.9-40.7-55.7-61.7-83.2c-16.9-22.2-35.3-43.2-50.8-66.4c-7.4-11.1-13.6-22.9-18.1-35.4
			C722.4,370.7,720.6,366.7,721.4,362.2z"/>
	</g>
	<g>
		<path class="st3" d="M1431.4,2342.4L1431.4,2342.4C1431.4,2342.4,1431.4,2342.4,1431.4,2342.4L1431.4,2342.4z"/>
	</g>
	<g>
		<path class="st3" d="M1791.9,2229.4c-1.7-3.8-5.6-4.5-8.8-6.1c-30.7-15.4-59.9-33.2-88.9-51.4c-6.7-4.2-11.5-10-15.9-16.2
			c-1.9-2.7-4-5.8-2.3-9.2c1.9-3.8,5.8-3.9,9.6-4c6.4,0,12.5,1.9,18.6,3.2c13.9,3.2,27.8,6.5,41.7,9.9c5.6,1.4,11.3,1.2,16.9,0.8
			c8-0.5,10.3-6,5.2-12.2c-5.6-6.8-13.5-10.8-21.1-14.9c-5.6-3-10.6-6.9-15.7-10.6c-4.1-3-7.1-7-7.7-12.4
			c-1.3-10.2,3.5-17.3,14.2-19.5c9-1.8,18.1-3.6,27.6-1.1c6,1.6,12.6,1.3,18.7-1.1c6.1-2.4,7.2-6.1,3.3-11.5
			c-5.1-6.9-12.6-10.7-20.1-14.4c-2.7-1.3-5.2-2.9-7.8-4.4c-7.6-4.6-10.8-11.3-10-20.2c0.9-10.9,6.7-14.6,17-10.3
			c10.5,4.4,19.9,10.7,29.1,17.4c8.9,6.5,17.9,12.6,26.9,19c3,2.2,6.3,3.7,9.9,4.6c5.5,1.3,8.4-1.3,6.8-6.8c-1.2-4.1-3.2-8-6.1-11.4
			c-6.6-7.9-13.1-15.9-19.8-23.7c-2-2.3-3.9-4.6-4.9-7.4c-2.1-5.8,0.5-9.1,6.5-8.5c14,1.5,27.2,5.3,40.2,10.9
			c24.4,10.5,48.9,21,74.3,29.1c19.6,6.3,39.6,10.9,60.1,13.6c17.2,2.3,34.4,2.6,51.6,4.1c31.6,2.8,63.2,1.8,94.8,1.1
			c21.4-0.5,43.1-1.4,64.1-7.1c6.6-1.8,12.3-5,18.3-7.9c12.9-6.3,26-11.7,40.5-13.5c3.3-0.4,6.2-0.6,8.1,2.1c2.2,3-0.1,6-1.9,8.1
			c-6.7,8.2-13.3,16.6-21.5,23.6c-15.8,13.4-30.5,27.8-43.4,44c-2.3,2.8-4.4,5.9-5.8,9.2c-1.1,2.7-1.2,6,1.4,8.3
			c2.3,2,5,1.9,7.5,0.8c4-1.7,7.8-3.6,11.1-6.6c5.2-4.7,10.4-9.3,15.8-13.7c2-1.7,4.3-3.2,6.7-4.2c8.2-3.6,13.8-1.3,17.7,6.9
			c6.1,12.9,4.1,25.7-6.1,36.8c-7.7,8.4-16.8,15.1-26.8,20.6c-11.9,6.6-24.2,12.7-36.1,19.2c-4.4,2.4-8.7,4.9-12.6,8
			c-6.8,5.4-6.7,12,0.4,17.3c6.1,4.7,12.9,8.1,20.2,10.7c2.7,1,6.1,1.4,6.1,5.5c-35.3,22-74.2,33.7-114.9,40.4
			c-38.6,6.4-77.4,7.4-116.3,5.5c-29.9-1.5-59.2-7.6-88-16.2c-24.6-7.4-48-17.8-71.5-27.9
			C1803.1,2233.6,1797.5,2231.5,1791.9,2229.4z"/>
	</g>
	<g>
		<path class="st3" d="M2229.3,1132.6c-0.1,1.3-0.1,2.6,1,3.5c14.2,38.5,31.7,75.5,49.9,112.2c12.2,24.5,25.7,48.2,41.1,70.8
			c1.1,1.7,2.2,3.3,3.2,5.1c1.6,2.6,0.6,4.4-1.9,5.6c-25.9,12.6-52.4,21.2-81.8,15.5c-32.6-6.3-65.4-12.2-98.1-18.2
			c-16.8-3.1-33.8-3.6-50.8-2.7c-16.4,0.9-29.5,9.7-42.8,18c-22.8,14.3-43.1,31.3-59.4,52.8c-7.9,10.5-14.1,21.8-16.6,34.9
			c-2.7-3.6-3.4-8-3.5-12.2c-0.4-17.3-3.7-34.3-4.7-51.5c-1.2-20.8-2.5-41.7-4.1-62.5c-1.3-16.6-0.9-33.2-1.6-49.8
			c-0.4-9.6-1.8-19.1-2-28.8c-0.5-26.3,1.6-52.5,4.5-78.5c4.3-39.3,12.5-77.9,28-114.6c7-16.6,15.7-32.3,28.3-45.4
			c14.3-14.9,31.5-19.8,51.8-14.8c23.1,5.7,42.9,17.8,61.6,31.8c30.6,22.9,56.5,50.3,77.1,82.6c7.4,11.6,13.1,23.9,16.6,37.2
			c0.8,3.2,1.3,6.5,4,8.9L2229.3,1132.6z M2081.6,1019.9c-0.3,20.4,3.3,40.4,7,60.4c9.6,52,21.5,103.6,34,154.9
			c2.9,11.9,5,24.1,9,35.8c3.5,10,9.9,16,20.7,17.9c16.4,2.9,32.4,7.6,47.8,14.1c10.2,4.4,20.8,7.3,31.7,8.6c17.1,2.1,34,1.1,49.7-7
			c11.3-5.9,13-10.6,8.3-22.6c-5-12.7-11.7-24.7-18.3-36.6c-22.4-40.5-44.8-80.9-63.7-123.3c-19.7-44-48.1-82-83.6-114.7
			c-7.4-6.8-15.4-12.8-24.7-16.8c-10.9-4.7-16.3-1.7-17.7,10.3C2081,1007.2,2081.6,1013.6,2081.6,1019.9z"/>
	</g>
	<g>
		<path class="st2" d="M2313.1,918.4c-12.1-2.2-23.5-7-35.6-9.2c-18.3-3.3-36.5-6.8-54.9-9c-19.4-2.3-38.7-5.1-58.1-7.5
			c-4.3-0.5-8.7-0.1-13-0.5c-5.4-0.5-6.7-2.4-4.4-7.1c10.5-21.2,21.8-42,31.8-63.4c11.1-23.9,32.8-33.8,54.9-43.2
			c28.6-12.1,59-18,88.8-26c0.6-0.2,1.3-0.1,2-0.3c9-2.3,11.8-3.9,4.1-11.8c-9.2-9.4-9.3-21.1-5.9-32.7c3.2-10.8,7.3-21.4,11.9-31.7
			c14.9-33.8,30.7-67.2,47.9-99.9c19.1-36.3,41.5-70.4,65.3-103.7c12.2-17,23.8-34.4,35.8-51.6c1.4-2.1,1.9-4.2,1.6-6.6
			c0,0-0.1,0.2-0.1,0.2c1.8,0,3.6,0,5.5,0c4,3.6,4.2,8.9,5.3,13.5c5.1,21.6,10,43.2,9.8,65.7c-0.1,14-4.3,26.8-7.9,39.8
			c-2.5,9.3-5.2,18.5-7.9,27.8c-0.4,1.3-0.6,2.6,0.6,4.2c8.6-3.6,15-10.5,22.8-15.5c7.8-5.1,13.1-13,20.9-18.2
			c2,2.9,1.1,5.6,1.1,8.1c0.1,12.3-1,24.8,0.3,36.9c1.5,14.6-3.6,26.9-10.9,38.5c-13,20.5-27.7,39.7-43.4,58.3
			c-12.4,14.7-23.4,30.7-37.8,43.6c-11.7,10.4-23.5,20.5-35.3,30.8c-7,6.1-14.1,12.1-21.3,18c-10.5,8.7-15.7,19.9-17.7,33.4
			c-4,27.1-11.3,53.3-24.2,77.6C2336.8,892.4,2326.1,906.4,2313.1,918.4z"/>
	</g>
	<g>
		<path class="st2" d="M2523.4,1590.3c-0.9,20.2-2.1,40.4-3.6,60.6c-1.6,21.2-4.1,42.2-8.6,63c-5.3,24.8-12.9,48.8-26.6,70.5
			c-18.5,29.3-44.9,48.4-77.1,60.2c-9.7,3.6-19.5,6-30.1,6c-23.4,0-40.1-10.8-51.1-30.6c-11.8-21.4-18.1-44.6-21.4-69
			c-2.7-19.8-0.9-39,1.8-58.4c0.7-4.9,2.5-7.1,7.6-8.8c8.8-2.9,15.1-8.7,17.4-18.7c3.1-13.3,4.7-26.7,5.7-40.3
			c2-26.5,2.5-53.1,4.3-79.6c1-15.1,2.1-30.4,5.7-45.3c5.5-23,18.9-27.3,38.3-25.5c3,0.3,4.4,2.5,6.1,4.6c5.5,6.6,11,13.4,17,19.5
			c9.4,9.4,19.6,18,30.4,25.7c23.2,16.6,48.3,29.3,75.7,37c8.2,2.3,8.2,2.5,8.3,11C2523.5,1578.3,2523.4,1584.3,2523.4,1590.3z"/>
	</g>
	<g>
		<path class="st4" d="M2711.4,1178.4c-3.9,0.4-6.9-2.1-10.2-3.4c-62.9-26-136.7-0.8-170.4,58.4c-1.6,2.9-2.9,6-4.3,9
			c-2.2,0.8-4.4,1.5-6.6,2.3c-21.2,7.7-33.7,30.4-28.5,52.1c3.2,13.4,11.5,22.9,23.1,29.9c6.9,40.9,28.2,72.4,63.3,93.8
			c65.7,40.2,149.1,19.5,189.3-46.3c1.7-2.8,3.4-5.6,5.4-9c1.3,14.8-14.2,50.7-32.3,74.9c-16.6,22.2-37.2,39.8-61.4,53.3
			c-65.3,36.4-145.2,29-197.3-7.6c-0.3-0.6,0-1.1,0.8-1.4c14.2-3.7,21-12.9,19.2-30.4c-0.5-4.6-1.1-9.4-2.6-13.7
			c-14.2-40.6-38.4-73.6-74.9-96.9c-7.6-4.9-15.7-8.9-24.2-11.7c-5.5-1.8-6.8-4.8-6.8-10.2c0.2-34.1,8.9-66,26.1-95.3
			c32.4-54.9,80.8-87.2,143.8-95.1c54-6.8,103,8,145.5,42.6C2709.8,1174.9,2711.9,1175.8,2711.4,1178.4L2711.4,1178.4z"/>
	</g>
	<g>
		<path class="st2" d="M2258.8,2383c-1.5-3.8-3-7.7-4.2-11.6c0.5,1.1,1.1,2.2,1.6,3.3C2258.2,2379.1,2259.3,2381.3,2258.8,2383z"/>
	</g>
	<g>
		<path class="st2" d="M2254.5,2371.4c-0.2-0.4-0.4-0.8-0.6-1.2c0-0.1,0.1-0.1,0.1-0.2C2254.2,2370.5,2254.4,2371,2254.5,2371.4z"/>
	</g>
	<g>
		<path class="st2" d="M2173.1,2674.1c-1.3-3.9-2.4-7.8-3.4-11.8c0.4,1.1,0.9,2.3,1.3,3.4
			C2172.8,2670.2,2173.7,2672.5,2173.1,2674.1z"/>
	</g>
	<g>
		<path class="st2" d="M2169.7,2662.3c-0.2-0.4-0.3-0.8-0.5-1.2c0-0.1,0.1-0.1,0.1-0.2C2169.4,2661.4,2169.6,2661.8,2169.7,2662.3z"
			/>
	</g>
	<g>
		<path class="st5" d="M2126.9,1776.2c18.3,1.1,40.2,2.4,62.1,3.8c6.9,0.4,7.8,1.5,8.4,8.4c0.2,2,0.1,4,0.1,6
			c-0.1,14.2-0.1,14.2-13,19.4c-1.9,0.7-3.6,1.7-5.5,2.3c-23.7,8-32.2,25.8-32.5,49.3c-0.2,18.7,5.3,36.1,11.8,53.2
			c4,10.5,4,10.3-6.8,14c-9.6,3.3-19.5,4.5-29.5,3.3c-13-1.5-18.5-7.3-20.6-20.2c-4.8-28.5-9.9-57-14.6-85.5
			c-1.9-11.1-3.2-22.4-4.5-33.6c-0.3-2.9,0.5-5.9,0.7-8.9c0.5-5.9,4-8.6,9.5-9.8C2102.6,1775.7,2112.9,1776.6,2126.9,1776.2z"/>
	</g>
	<g>
		<path class="st5" d="M2267.5,1851.4c-0.9,19-2.6,40.3-6.5,61.2c-3.3,17.7-12.6,32.9-26.4,44.7c-14.4,12.3-27.5,10-35.6-6.9
			c-10.6-22.2-21.2-44.5-26.2-68.8c-2-9.5-2.1-19,0.3-28.6c1.1-4.3,3.1-7.4,6.8-9.3c22.4-11.4,45.8-19.7,70.7-23.3
			c2-0.3,4-0.2,6-0.3c5.1-0.1,7.9,2.3,9.2,7.2C2267.7,1834.4,2267.5,1841.7,2267.5,1851.4z"/>
	</g>
	<g>
		<path class="st5" d="M2514.5,1326.6c-11.6-7-19.9-16.5-23.1-29.9c-5.2-21.6,7.2-44.3,28.5-52.1c2.2-0.8,4.4-1.5,6.6-2.3
			c9,0,17.9-0.3,26.4,3.8c21.6,10.4,31.5,35.1,22.5,57.3c-8.7,21.7-32.4,32.5-55.2,25.1C2518.3,1327.9,2516.4,1327.2,2514.5,1326.6z
			"/>
	</g>
	<g>
		<path class="st5" d="M2076,1917.1c-22.4-4.9-40.6-13.8-53.4-31.9c-4.1-5.8-4.7-12.6-2.7-19.1c6.8-21.9,20.9-38.6,38.8-54.5
			C2063.4,1847.6,2071.8,1881.3,2076,1917.1z"/>
	</g>
	<g>
		<path class="st2" d="M2239.1,2286.1c-4.9,8.5-12.7,14.4-19.6,20.9c-12.8,11.9-25.3,24.4-40.7,33.2c-13.8,7.9-27.9,15.2-43.8,18.1
			c-4.4-6.1-4.5-13.7-7.1-20.5c-1.5-3.8,1.6-5.1,4.7-6.1c9.2-2.8,18.4-5.6,27.6-8.6c25-8.4,49-18.9,71-33.6
			C2233.5,2287.7,2235.9,2286,2239.1,2286.1z"/>
	</g>
	<g>
		<path class="st2" d="M919.4,1018.4c2.8,2.3,1.9,5.4,2,8.3c0.2,9.3,0.5,18.4,1.5,27.7c1.9,18.5,5.5,36.5,9.7,54.6
			c0.5,2,0.7,3.9,0,5.8c-1.6-0.7-2.6-1.8-3.1-3.6c-6.8-27.4-13.3-54.9-12-83.4C917.7,1024.6,916.5,1021.1,919.4,1018.4z"/>
	</g>
	<g>
		<path class="st2" d="M2467.5,1104.4c9.3-10.5,22.4-13.5,34.8-17.7c3.5-1.2,7.4-3.3,11.6-1.7c-0.6,1.6-1.6,2.7-3.3,3.3
			c-12.8,4.1-25.3,8.9-37.3,15.1C2471.4,1104.3,2469.5,1104.6,2467.5,1104.4z"/>
	</g>
	<g>
		<path class="st2" d="M933.1,1118.4c2,1,2.3,2.5,1.6,4.4C932.6,1121.9,930.6,1120.9,933.1,1118.4z"/>
	</g>
	<g>
		<path class="st4" d="M2711.4,1178.4c1-0.5,1.8-0.1,2.5,0.6c0.1,0.1-0.4,1-0.7,1C2712.2,1180,2711.5,1179.5,2711.4,1178.4
			L2711.4,1178.4z"/>
	</g>
	<g>
		<path class="st3" d="M1585.4,1942.4c0.9,0.2,1.7,0.4,2.6,0.6C1586.5,1944.9,1586.2,1943.1,1585.4,1942.4L1585.4,1942.4z"/>
	</g>
	<g>
		<path class="st3" d="M1605.4,2120.4c0.3,0.3,0.6,0.5,0.9,0.8c-0.2,0-0.4,0-0.5-0.1C1605.6,2120.9,1605.5,2120.6,1605.4,2120.4
			C1605.4,2120.4,1605.4,2120.4,1605.4,2120.4z"/>
	</g>
	<g>
		<path class="st3" d="M1445.3,2224.5c-0.3-0.3-0.6-0.7-0.8-1c0.3,0.3,0.7,0.6,1,0.8C1445.5,2224.3,1445.3,2224.5,1445.3,2224.5z"/>
	</g>
	<g>
		<path class="st3" d="M1585.5,1942.3c-0.3-0.3-0.6-0.5-0.9-0.8c0.2,0.1,0.4,0,0.5,0.2C1585.3,1941.9,1585.3,1942.2,1585.5,1942.3
			C1585.4,1942.4,1585.5,1942.3,1585.5,1942.3z"/>
	</g>
	<g>
		<path class="st3" d="M1431.4,2342.4c-0.3-0.3-0.6-0.6-0.9-0.9c0.2,0,0.4,0,0.5,0.1C1431.2,2341.8,1431.3,2342.1,1431.4,2342.4
			C1431.4,2342.4,1431.4,2342.4,1431.4,2342.4z"/>
	</g>
	<g>
		<path class="st0" d="M2229.2,1132.5c0.3-0.3,0.6-0.5,0.9-0.8c-0.3,0.3-0.5,0.6-0.8,0.9C2229.3,1132.6,2229.2,1132.5,2229.2,1132.5
			z"/>
	</g>
	<g>
		<path class="st0" d="M1334.3,1680.6c-168.6,1.6-309.2-136.7-308.9-308.4c0.3-172.1,140.8-307.6,307.7-308.3
			c169.3-0.8,311,136.9,310.4,309.4C1643,1544.3,1502.3,1682.3,1334.3,1680.6z M1127.5,1518.2c-0.3-0.4-0.5-0.9-0.8-1.3
			c-0.3,0.3-0.6,0.6-0.8,0.9c0.4,0.3,0.8,0.5,1.3,0.8c-0.3,3.4,2.4,5.4,4.1,7.7c13.2,18.2,28.7,34.2,46.3,48.1
			c54.1,42.4,115.5,60.8,184,54.3c58.1-5.5,108.8-28.5,150.7-68.8c56.3-54.3,83-121.1,79.5-199.6c-2.8-61.3-24.7-115.3-66.4-160
			c-62.1-66.6-139.3-93.8-229.6-80.1c-69.6,10.6-124.8,46-166.4,102.6c-3.1,4.2-7.1,8-8,13.5c-0.6,0.3-2.3,0.3-0.5,1.3
			c0.4,0.2,0.7-0.8,0.3-1.5c4,0.7,5.8-2.7,8.2-4.7c29.1-23,62.1-36.2,98.9-38.8c50.9-3.7,96.1,11.5,134.5,45.2
			c18.4,16.1,33.7,35,43.1,58c-7.6-0.9-15.1-1.1-22.8,0.3c-24.7,4.5-43.5,24.9-47.2,51.5c-3.2,23.5,10.6,48.6,32.3,59.1
			c17.7,8.5,35.3,7.4,53,0.2c-0.9,11.4-4.5,22.2-8.5,32.8c-43,113.1-179.9,154-277.8,83.1C1132.7,1521,1130.9,1518.4,1127.5,1518.2z
			"/>
	</g>
	<g>
		<path class="st5" d="M2081.6,1019.9c0-6.3-0.6-12.7,0.1-18.9c1.4-12,6.8-15.1,17.7-10.3c9.3,4,17.3,10,24.7,16.8
			c35.5,32.7,63.8,70.6,83.6,114.7c19,42.3,41.3,82.8,63.7,123.3c6.6,11.9,13.3,23.9,18.3,36.6c4.7,12,3,16.7-8.3,22.6
			c-15.7,8.1-32.6,9.1-49.7,7c-10.9-1.3-21.5-4.2-31.7-8.6c-15.4-6.6-31.3-11.3-47.8-14.1c-10.7-1.9-17.2-7.9-20.7-17.9
			c-4-11.7-6.1-23.8-9-35.8c-12.6-51.4-24.4-102.9-34-154.9C2084.9,1060.4,2081.3,1040.3,2081.6,1019.9z"/>
	</g>
	<g>
		<path class="st0" d="M1031.4,1820.3c0.3-0.9,0.5-1.7,0.8-2.6C1033.9,1819.2,1032.3,1819.7,1031.4,1820.3
			C1031.4,1820.4,1031.4,1820.3,1031.4,1820.3z"/>
	</g>
	<g>
		<path class="st0" d="M1031.4,1632.3c0.7-0.6,1.4-1.3,2.1-1.9l-0.1-0.1C1033.1,1631.4,1032.5,1632.1,1031.4,1632.3
			C1031.5,1632.4,1031.4,1632.3,1031.4,1632.3z"/>
	</g>
	<g>
		<path class="st0" d="M1033.5,1630.4c0.1-0.3,0.4-0.8,0.4-0.8C1034.5,1629.8,1034.3,1630.1,1033.5,1630.4
			C1033.4,1630.3,1033.5,1630.4,1033.5,1630.4z"/>
	</g>
	<g>
		<path class="st0" d="M967.4,2578.3c0.3-0.3,0.6-0.5,0.9-0.8c0,0.2,0,0.4-0.1,0.5C968,2578.2,967.7,2578.3,967.4,2578.3
			C967.4,2578.4,967.4,2578.3,967.4,2578.3z"/>
	</g>
	<g>
		<path class="st4" d="M1121.5,1236.4c0.9-5.6,4.9-9.3,8-13.5c41.6-56.7,96.7-92,166.4-102.6c90.3-13.7,167.5,13.5,229.6,80.1
			c41.7,44.7,63.6,98.7,66.4,160c3.5,78.4-23.2,145.3-79.5,199.6c-41.9,40.4-92.5,63.4-150.7,68.8c-68.5,6.5-129.9-11.9-184-54.3
			c-17.7-13.8-33.1-29.9-46.3-48.1c-1.7-2.3-4.3-4.3-4.1-7.7l0.3-0.4c3.3,0.1,5.2,2.8,7.6,4.5c97.9,70.9,234.9,30,277.8-83.1
			c4-10.6,7.6-21.3,8.5-32.8c1.7-1.1,3.3-2.2,5-3.3c30.5-20.4,35.9-61.1,11.9-88.9c-8.7-10-19.7-15.5-32.2-18.8
			c-9.4-23-24.7-41.8-43.1-58c-38.4-33.7-83.6-48.9-134.5-45.2c-36.8,2.7-69.9,15.9-98.9,38.8c-2.4,1.9-4.2,5.4-8.2,4.7
			L1121.5,1236.4z"/>
	</g>
	<g>
		<path class="st5" d="M1406.1,1295.9c12.5,3.3,23.5,8.9,32.2,18.8c24,27.7,18.7,68.5-11.9,88.9c-1.7,1.1-3.3,2.2-5,3.3
			c-17.7,7.3-35.3,8.4-53-0.2c-21.7-10.5-35.5-35.6-32.3-59.1c3.7-26.6,22.5-46.9,47.2-51.5C1391,1294.8,1398.5,1295,1406.1,1295.9z
			"/>
	</g>
	<g>
		<path class="st4" d="M1127.2,1518.6c-0.4-0.3-0.8-0.5-1.3-0.8c0.3-0.3,0.6-0.6,0.8-0.9c0.3,0.4,0.5,0.9,0.8,1.3
			C1127.5,1518.2,1127.2,1518.6,1127.2,1518.6z"/>
	</g>
	<g>
		<path class="st4" d="M1121.3,1236.3c0.5,0.6,0.1,1.7-0.3,1.5c-1.8-1-0.1-1,0.5-1.3C1121.5,1236.4,1121.3,1236.3,1121.3,1236.3z"/>
	</g>
	<g>
		<path class="st0" d="M2151.6,2439.2"/>
	</g>
	<g>
		<path class="st2" d="M1431.4,2342.3L1431.4,2342.3L1431.4,2342.3C1431.4,2342.4,1431.4,2342.4,1431.4,2342.3
			C1431.4,2342.4,1431.4,2342.3,1431.4,2342.3z"/>
	</g>
	<g>
		<path class="st2" d="M1605.5,2120.4C1605.5,2120.4,1605.4,2120.4,1605.5,2120.4c-0.1-0.1-0.1-0.1-0.1-0.1
			C1605.4,2120.3,1605.4,2120.3,1605.5,2120.4C1605.4,2120.4,1605.5,2120.4,1605.5,2120.4z"/>
	</g>
	<g>
		<path class="st3" d="M1431.1,2342L1431.1,2342C1431.1,2342.1,1431.1,2342.1,1431.1,2342L1431.1,2342z"/>
	</g>
	<g>
		<path class="st3" d="M2292.1,2245.5c-14.9,6-29,26.9-19.3,48.1c2.5,5.4,4.7,11,7.2,16.4c3.3,7.1,3.4,7.2-4.5,10.2
			c-16.9,6.3-27.9,28.4-23.3,44.7c2.1,7.4,4.7,14.6,7.7,21.6c0,0,0,0,0,0l23.7-12.9c0,0,0,0,0,0l4.1,34.2c0,0,0,0,0,0l-39.5,44.4
			c0,0,0,0,0,0l-55.2,235.8c0,0,0,0,0,0l-29.6,36.5c0,0,0,0,0,0l-28.9,92.7c0,0,0,0,0,0l-185.1,234.8c0,0,0,0,0,0l-42.4,14.8
			c0,0,0,0,0,0l-13.8,64.1c0,0,0,0,0,0l-38.5-15.8c0,0,0,0,0,0l-27.6,33.5c0,0,0,0,0,0l-91.7,11.8c0,0,0,0,0,0L1578.5,3041
			l-212.1-165.7c0,0,0,0,0,0l-52.3-23.7c0,0,0,0,0,0l-30.6-35.5c0,0,0,0,0,0l-44.4,3.9c0,0,0,0,0,0l-44.4-52.3c0,0,0,0,0,0
			l-105.5-20.7c0,0,0,0,0,0l-68.1-64.1c0,0,0,0,0,0l-40.4-14.8c0,0,0,0,0,0l-13.3-48.3c0,0,0,0,0,0l38-205.2l12.8-72.2c0,0,0,0,0,0
			l19.7-61.5c0,0,0,0,0,0l6.9-102l6.9-70l6.9-127.2c0,0,0,0,0,0l-8.9-98.6l-8.9-80.9l-8.7-54c0,0,0,0,0,0l2.1-58.5c0,0,0,0,0,0
			l-7.3-47.4c0,0,0,0,0,0l34.5,18.2c0,0,0,0,0,0l8.5,13.9c0,0,0,0,0,0l81.3,102.6c0,0,0,0,0,0l168.9,262.6c0,0,0,0,0,0l58.4,421.8
			c0,0,0,0,0,0l38,9.7c0,0,0,0,0,0l99.9,148.5c0,0,0,0,0,0l31.8-32.7c0,0,0,0,0,0l-5.3-43.3c0,0,0,0,0,0
			c-8.4-12.4-16.8-24.7-24.9-37.3c-12.4-19.3-23.7-39.2-34.8-59.3c-16.9-30.9-33.2-62.2-48.7-93.8l-6.5-13.2c0,0,0,0,0,0
			c8.5,5.6,13,14.5,19.1,22c6.5,8.1,14,15.1,21.1,22.5c3.3,3.4,7.5,5.6,11.9,7c6,2,9.9-0.4,10.4-6.8c0.5-5.6,0.6-11.4-0.4-16.9
			c-3.1-17.3-7.1-34.4-12.3-51.2c-7.8-25.4-15.7-50.7-24.9-75.7c-2.2-6-7.7-10.1-8.3-16.8l0.2-0.2c7.2,1.7,11.4,8,16.5,12.3
			c21.5,18.4,44.4,35,68.5,49.6c33.1,20.2,68.4,35.3,106.8,42.3c31.3,5.6,62.4,11.9,93.7,17.3c23.2,4,46.5,7.2,69.7,10.6
			c17,2.6,34,5.3,51.1,7.4c15.4,1.9,31.1,2.4,46.5,4.6c24.4,3.5,48.9,3.2,73.4,5.4c15.5,1.4,31.3,0.3,46.9,0.4
			c21.3,0.1,42.3-2.7,63.5-4.1c1.4-0.1,1.2-0.1,2.1-1.2c0,0,1.6-0.4,1.6-0.4c2.8,3.2,4.4,6.1,6.8,9.5c12.7,18.3,22.6,37.7,26.5,59.6
			c0,0.2,0.1,0.3,0.1,0.5l32.1-4.4c0,0,0,0,0,0c-3.8-24.5-8.4-46.1-14.7-70c-0.4-1.6-0.5-2.6-1.3-5.2c0,0,1.5-0.5,1.5-0.5
			c15.9-2.9,28.1-10,42-17.9c15.4-8.8,27.9-21.3,40.7-33.2c7-6.5,14.7-12.4,19.6-20.9c0,0,0,0,0,0c16.3-14.3,30.7-30.4,45-46.6
			c3.5-3.9,6.6-8.4,11.2-11.2c0,0,0,0,0,0c0.7,1.5,1.4,3,2.1,4.5C2301.5,2241.3,2301.6,2241.7,2292.1,2245.5z"/>
	</g>
	<g>
		<path class="st3" d="M972.5,1251c3,8.1,4.9,16.6,7.2,24.9c9.5,34.3,14.7,69.6,21.5,104.4c16.4,83.4,43.5,163.1,81.5,239.1
			c21,42.2,48.2,79.6,81.4,112.9c10.6,10.6,21.1,21.2,31.7,31.9c22.1,18.5,43,38.5,65.2,57c27.8,23.2,56.2,45.6,85,67.4
			c3.2,2.4,6.4,5,8.8,8.1c13.2,17.1,27.1,33.5,41.4,49.7c20.5,23.2,42.2,45.2,66.1,64.8c24.9,20.4,50.7,39.6,76.5,58.9
			c22.3,16.7,43.8,34.4,66.8,50.1c-0.2-1.6,0.1-3.5-0.7-4.8c-4.9-7.8-8.4-16.7-7.9-25.4c0.8-14.7-8.2-19.2-19-24.9
			c-21.4-11.4-38.5-27.3-45.1-52c-3.2-12,1.5-21.5,13.4-24.6c4.1-1.1,8.3-2,12.7-2.6c5.3-0.7,10.9-1,16.5-3.5
			c-7.6-7.2-15.1-13.3-20.2-21.7c-3.7-6.1-6.1-12.5-5.8-19.8c0.2-4.5,2.4-6.5,6.8-6.9c5.2-0.4,9.8,1.3,14.6,2.7
			c3.1,1,6.1,3.2,11.1,1.7c-13.3-10.3-25.9-19.5-37.6-29.7c-23.1-20-41.7-42.7-49.9-72.9c-6.5-23.8-8.7-47.3-1.5-71.5
			c4.5-15,9.9-29.7,16.5-43.8c14.1-29.8,29.7-58.8,44.9-88.1c6.1-11.8,13-23.2,20.1-34.5c29.2-46.1,62.8-89,97.1-131.4
			c28.2-34.8,56.9-69.4,82.4-106.4c13.9-20.3,26.1-41.5,32.3-65.9c6.1-24.1,14.2-47.7,22.6-71.2c5.8-16.3,11.2-32.7,17.5-48.8
			c2.1-5.4,1.1-7-4.7-8.2c-3.2-0.7-6.5-1.4-9.7-2c-53.5-10.1-106.4-23.1-158.1-40.3c-33.3-11.1-64.7-25.8-93.7-46
			c-23.7-16.5-47.6-32.9-73.2-46.6c-24.5-13.1-49.7-24-76.4-31.4c-11.4-3.2-22.8-6-35.5-9.3c3.9-5.1,7.6-8.9,11.8-12
			c3-2.2,5.6-4.7,8.3-7.2c15.7-14.9,30.1-31.1,42.5-48.8c16.8-24,30.7-49.3,23.9-80.5c-2.9-4-5.6-8.2-8.7-12.1
			c-23.2-29.4-49.6-55.7-75.4-82.6c-18.9-19.8-38.7-38.5-58.4-57.5c-28.3-27.3-57.2-53.9-86.9-79.7c-36-31.2-74.8-58.9-114.1-85.8
			c-53.1-36.3-107-71.1-161.6-105.1c-48.9-30.4-97.7-61.2-148-89.2c-23.4-13.1-48.7-21.7-75.3-25.3c-15.2-2-20.8-1.8-21.2,18.5
			c-0.3,12.7,3.2,25,6.2,37.2c0.4,1.6,2,1.4,3.3,1.4c3.9-8.9,7.6-10.6,15.9-8.1c7.9,2.3,14.2,7.4,20.5,12.2
			c31.2,24.2,62.5,48.3,93.1,73.3c25.2,20.6,50.6,41.3,72.1,65.9c13.6,15.6,27.1,31,41.9,45.5c20.5,20,43,37.5,65,55.8
			c15.3,12.7,31.1,24.9,45.8,38.5c13.4,12.4,25.1,26.5,38.5,38.9c6.1,5.6,11.6,11.9,18.4,16.8c3,2.2,6.2,4.8,8.1,9.7
			c-13.8-2.1-26.6-6.5-40.5-3.4c0.7,5.2,4.5,7.3,8,9.6c12.1,7.7,24.2,15.2,36.2,23c12.6,8.3,23.6,18.3,32.4,30.7
			c7.1,10,10.8,21.3,12.3,33.3c1.2,9.8-2.3,19-6.3,27.9c-6.2,13.7-14.4,26.2-22.6,38.7c-8.4,12.8-16.3,25.8-23.5,39.4
			c-8.2,15.6-20.7,27.5-34.5,38.1c-35.4,27.4-74.9,46.8-117.4,60.2c-15.8,5-31.8,9.6-48.8,8.5c-5.7-0.4-11.3-0.4-16.7-2.3
			c0,1.3,0.1,2.7,0.1,4c2.8,2.3,1.9,5.4,2,8.3c0.2,9.2,0.6,18.4,1.5,27.7c1.9,18.5,5.6,36.5,9.7,54.6c0.5,2,0.7,3.9,0,5.8
			c0.2,1.2,0.3,2.4,0.5,3.6c2,0.9,2.3,2.5,1.6,4.4c5.4,24,13.3,47.4,20.3,70.9c2.1,7.1,4.5,13.5,13.5,13.3
			C966,1222.7,967.2,1237,972.5,1251z M1333.2,1063.9c169.3-0.8,311,136.9,310.4,309.4c-0.6,171-141.2,309-309.2,307.3
			c-168.6,1.6-309.2-136.7-308.9-308.4C1025.8,1200.2,1166.3,1064.7,1333.2,1063.9z"/>
	</g>
	<g>
		<path class="st2" d="M1431.4,2342.4c-0.6,4.3,1.9,7.6,3.6,11.2c15.5,31.6,31.7,62.9,48.7,93.8c11,20.1,22.3,40,34.8,59.3
			c10.1,15.6,20.6,30.9,31,46.3c21,31.2,17.9,66.6-6.5,79.1c-24.4,12.5-55.1,1.2-67.7-16.6c-10.5-14.8-24.6-40.5-27.3-46
			c-0.4-0.7-0.6-1.3-0.9-2.2c-0.8-2.2-1.4-4.3-2.4-6.4c-9.7-20.8-19.4-41.6-29.3-62.3c-3.3-7-6.9-13.9-10.4-20.9
			c-0.5,6.8,0.3,13,1.6,19.1c1.7,7.6,0.4,14.6-3.1,21.3c-3.8,7.2-11.2,9.4-18.6,6.2c-5.1-2.3-8.4-6-11.2-10.9
			c-9.6-16.7-13.8-35.2-18.3-53.6c-7-29-13-58.3-19.8-87.3c-9.6-41-15.8-82.6-22.3-124.2c-2.6-16.4-5-32.7-7.4-49.1
			c-2.2-15.4-4.4-30.8-6.5-46.2c-2.6-19.4-5.2-38.7-7.6-58.1c-1.6-12.8-2.7-25.7-4.6-38.5c-1.2-8-1.2-16.3-6.7-23.5
			c-20.1-26.5-38.4-54.3-56.5-82.2c-29-44.6-56.4-90.2-82.6-136.5c-25.4-44.9-49.4-90.5-72.5-136.7c-1.5-2.9-3.8-5.6-3.2-9.2
			c1.7,0.3,3.2,0.9,4.3,2.3c11.3,15.5,26.2,27.4,40.6,39.6c20.9,17.9,43.3,34,66.6,48.8c3.9,2.5,8.2,4.4,12.3,6.5
			c2.3,1.2,4.5,1.4,6.1-1.2c22.1,18.5,43,38.5,65.2,57c27.8,23.2,56.2,45.6,85,67.4c3.2,2.4,6.4,5,8.8,8.1
			c13.2,17.1,27.1,33.5,41.4,49.7c20.5,23.2,42.2,45.2,66.1,64.8c24.9,20.4,50.7,39.6,76.5,58.9c22.3,16.7,43.8,34.4,66.8,50.1
			c0,0,0,0,0,0c0,0,0.1,0,0.1,0.1c0.1,0.2,0.2,0.4,0.3,0.6c0.1,0.1,0.3,0.1,0.5,0.1c-0.3-0.2-0.6-0.5-0.8-0.7c0,0,0-0.1,0-0.1
			c0,0,0,0,0,0c-0.2-1.6,0.1-3.5-0.7-4.8c-4.9-7.8-8.4-16.7-7.9-25.4c0.8-14.7-8.2-19.2-19-24.9c-21.4-11.4-38.5-27.3-45.1-52
			c-3.2-12,1.5-21.5,13.4-24.6c4.1-1.1,8.3-2,12.7-2.6c5.3-0.7,10.9-1,16.5-3.5c-7.6-7.2-15.1-13.3-20.2-21.7
			c-3.7-6.1-6.1-12.5-5.8-19.8c0.2-4.5,2.4-6.5,6.8-6.9c5.2-0.4,9.8,1.3,14.6,2.7c3.1,1,6.1,3.2,11.1,1.7
			c-13.3-10.3-25.9-19.5-37.6-29.7c-23.1-20-41.7-42.7-49.9-72.9c-6.5-23.8-8.7-47.3-1.5-71.5c4.5-15,9.9-29.7,16.5-43.8
			c14.1-29.8,29.7-58.8,44.9-88.1c6.1-11.8,13-23.2,20.1-34.5c29.2-46.1,62.8-89,97.1-131.4c28.2-34.8,56.9-69.4,82.4-106.4
			c13.9-20.3,26.1-41.5,32.3-65.9c6.1-24.1,14.2-47.7,22.6-71.2c5.8-16.3,11.2-32.7,17.5-48.8c2.1-5.4,1.1-7-4.7-8.2
			c-3.2-0.7-6.5-1.4-9.7-2c-53.5-10.1-106.4-23.1-158.1-40.3c-33.3-11.1-64.7-25.8-93.7-46c-23.7-16.5-47.6-32.9-73.2-46.6
			c-24.5-13.1-49.7-24-76.4-31.4c-11.4-3.2-22.8-6-35.5-9.3c3.9-5.1,7.6-8.9,11.8-12c3-2.2,5.6-4.7,8.3-7.2
			c15.7-14.9,30.1-31.1,42.5-48.8c16.8-24,30.7-49.3,23.9-80.5c18.4-2.4,37-4.7,55.4-3.6c25,1.4,50.1,2.6,75,6.8
			c38.7,6.5,76.4,16.1,113.5,28.5c24.9,8.3,49.1,18.3,72.6,29.8c8.5,4.2,15.7,3,23.5,0.4c2.8,3.6,6.8,2,10.2,2
			c37.9-0.2,75.7,0.2,113.6,3.5c22.1,1.9,44.3,3.9,66.2,6.8c28.9,3.8,57.7,8.7,86.2,14.3c32.9,6.5,65.5,13.9,98.1,21.5
			c55.9,13.1,111.8,26.1,166,45.5c28,10,54.7,22.5,81,36.2c12.5,6.5,23.6,14.8,33.1,25.4c10.6,11.8,15.4,24.7,8.9,40.2
			c-0.9,2.1-1,3.8,0.9,5.3c-1.5,4.2-5.6,5.5-8.9,7.4c-16.2,9.4-30.9,20.8-44.1,33.8c-34.9,34.4-58.3,75.4-69.1,123.3
			c-1.7,7.7-3.2,15.4-4.9,23.7c-8.2-4.3-12.4-12.2-17.5-18.8c-24.6-31.8-46.4-65.5-66.7-100.2c-6.2-10.6-12.1-21.4-18.1-32.1
			c-1.5-2.6-2.7-5.4-6.1-6.1c-1.1-1-1.1-2.2-1-3.5c0.3-0.3,0.6-0.6,0.8-0.9c-0.3,0.3-0.6,0.5-0.9,0.8c-2.7-2.4-3.2-5.6-4-8.9
			c-3.4-13.3-9.2-25.6-16.6-37.2c-20.6-32.3-46.5-59.7-77.1-82.6c-18.7-14-38.4-26.1-61.6-31.8c-20.3-5-37.5-0.1-51.8,14.8
			c-12.6,13.1-21.4,28.8-28.3,45.4c-15.5,36.7-23.6,75.3-28,114.6c-2.9,26-5,52.2-4.5,78.5c0.2,9.7,1.6,19.2,2,28.8
			c0.7,16.6,0.3,33.1,1.6,49.8c1.6,20.8,3,41.7,4.1,62.5c1,17.2,4.3,34.2,4.7,51.5c0.1,4.1,0.8,8.6,3.5,12.2c0,1.7,0.2,3.3,0.1,5
			c-1.5,25.8,11.8,43.1,33.1,54.6c22,11.9,46.1,17,71,16.5c13.4-0.3,25.7-5.8,37.9-10.8c2.7-1.1,5.3-2.4,7.7-3.9
			c22.4-13.5,45.4-11.3,68.5-1.8c9.2,3.8,18.1,8.4,26,14.7c9.1,7.3,15.6,16.3,18.2,27.8c2.1,9.1,3.8,18.2,3.7,27.5
			c-0.1,21.7,0.3,43.3-0.1,65c-0.1,9.1,1.3,17.9,2.5,26.8c1.5,11.7,9.2,19.7,19,25.5c6.6,4,13.8,6.6,21.4,8.1
			c3.8,0.7,5.6,2.6,3.5,7.1c-15.2,31.3-31.8,61.5-58.1,85.3c-1.9,1.7-3.2,4.4-6.1,4.2c-1.7-0.7-1.6-2.2-2-3.4
			c-4.8-16.2-14.4-23.1-31.4-23.9c-20.2-0.9-40.4-1.7-60.6-3.6c-13.9-1.3-28-0.7-41.7,2.2c-12.5,2.6-23.2,8.5-26.9,22.3
			c-0.9,3.3-3.1,5.6-6,7.6c-12.7,8.8-23.5,19.6-33.2,31.5c-2.4,3-4.7,4.1-8.5,3.6c-19.4-2.7-38.6-5.9-57.8-10
			c-12.1-2.6-23-8.7-34.4-13c-35.2-13.3-70.8-25-108.2-30.1c-9.8-1.3-19.7-3.1-29.7-2.6c-10.3,0.5-20.6-1.3-30.8-1.5
			c-14.2-0.2-28.5,1.1-42.8,2c-9.8,0.7-19.8,1.8-29.2,5.5c-3.4,1.4-6.9,2.6-9.3,5.6c-1.1,1.4-1.7,2.9-0.8,4.6
			c0.8,1.3,2.1,1.5,3.5,1.3c19.9-3,39.9-0.5,59.8-1.5c19-0.9,37.9,1.4,56.8,2.4c18.8,1,37.6,3.6,56,8.3c15.6,4,29.7,11.4,42.4,21.5
			c15.9,12.6,30.8,26.4,46,39.8c28.6,25.3,56.3,51.7,88.3,72.9c17,11.3,35.8,19.1,54.2,27.7c24.1,11.2,49,20.6,74.4,28.6
			c22.8,7.2,46,10.5,69.8,8.8c12.1-0.9,22.6-6.5,31.2-14.4c19.5-17.8,32-39.7,35.1-66.4c2.8-23.7,6-47.4,6-71.2c3-1.1,4.8,0.5,6.5,2
			c19.5,16.8,42.7,25.2,67.5,30.1c9.9,2,11,3.4,9.5,13.3c-6.2,41.7-14.4,83-26.4,123.5c-6.8,23-15.7,45.2-25.2,67.2
			c-14.6,33.7-32.9,65.4-53.9,95.4c-18.9,27-41.9,49.7-70.6,66.4c0-4.1-3.4-4.5-6.1-5.4c-7.3-2.6-14.1-6-20.2-10.7
			c-7.1-5.4-7.2-11.9-0.4-17.3c3.9-3.1,8.2-5.6,12.6-8c12-6.5,24.2-12.6,36.1-19.2c9.9-5.5,19.1-12.2,26.8-20.6
			c10.2-11.1,12.2-23.9,6.1-36.8c-3.9-8.2-9.6-10.5-17.9-6.8c-2.4,1.1-4.5,2.5-6.5,4.1c-5.4,4.5-10.7,9-15.9,13.8
			c-3.3,3-7.1,4.9-11.1,6.6c-2.5,1.1-5.3,1.2-7.5-0.8c-2.6-2.3-2.5-5.7-1.4-8.3c1.4-3.3,3.5-6.4,5.8-9.2
			c12.9-16.2,27.6-30.6,43.4-43.9c8.2-6.9,14.8-15.3,21.5-23.6c1.8-2.1,4.1-5.1,1.9-8.1c-1.9-2.7-4.8-2.5-8.1-2.1
			c-14.5,1.8-27.6,7.2-40.5,13.5c-5.9,2.9-11.7,6.1-18.2,7.9c-21.1,5.7-42.7,6.6-64.1,7.1c-31.6,0.7-63.2,1.6-94.8-1.1
			c-17.2-1.5-34.4-1.9-51.6-4.1c-20.5-2.7-40.5-7.3-60.1-13.6c-25.4-8.1-49.8-18.6-74.2-29.1c-12.9-5.6-26.2-9.4-40.2-10.9
			c-6.2-0.7-8.8,3-6.2,9.2c0.8,1.8,1.9,3.5,3.1,5c7.2,8.4,14.2,17,21.3,25.5c2.8,3.4,4.9,7.2,6.1,11.4c1.6,5.5-1.3,8.1-6.8,6.8
			c-3.6-0.9-6.9-2.4-9.9-4.6c-8.9-6.4-18-12.6-26.9-19c-9.2-6.7-18.5-13-29-17.4c-10.3-4.3-16.1-0.6-17,10.3
			c-0.7,8.9,2.4,15.6,10,20.2c2.6,1.5,5.1,3.1,7.8,4.4c7.4,3.7,14.9,7.5,20.1,14.4c3.9,5.3,2.8,9.1-3.3,11.5
			c-6.1,2.4-12.7,2.7-18.7,1.1c-9.5-2.5-18.6-0.7-27.6,1.1c-10.7,2.2-15.5,9.4-14.2,19.5c0.7,5.3,3.6,9.4,7.7,12.4
			c5.1,3.7,10.1,7.5,15.7,10.6c7.6,4.1,15.5,8,21.1,14.9c5.1,6.2,2.8,11.7-5.1,12.2c-5.6,0.4-11.3,0.6-16.9-0.8
			c-13.9-3.4-27.7-6.7-41.7-9.9c-6.1-1.4-12.2-3.3-18.6-3.2c-3.7,0-7.6,0.2-9.6,4c-1.7,3.4,0.3,6.6,2.3,9.2
			c4.5,6.2,9.2,12,15.9,16.2c29,18.3,58.3,36,88.9,51.4c3.2,1.6,7.1,2.3,8.8,6.1c-2.4,1.1-4.5-0.4-6.8-0.6c-6.5-0.6-9,2.5-6.3,8.2
			c3.9,8.1,8.6,15.6,16.6,20.7c21.1,13.4,42.8,25.5,65.6,35.8c24.6,11.1,49.4,21.4,75.1,29.4c25.4,7.9,51,14.6,77.5,17.7
			c14.8,1.7,29.6,3.4,44.5,3.7c2.7,0,5.5-0.4,7.6,1.7c6.9,7.1,15.9,13.7,20.3,23c-1.7,0.8-2.4,0.9-4,1.2
			c-20.8,4.3-42.2,4.2-63.5,4.1c-15.6-0.1-31.4,1-46.9-0.4c-24.4-2.2-49-1.9-73.4-5.4c-15.4-2.2-31-2.7-46.5-4.7
			c-17.1-2.1-34.1-4.9-51.1-7.4c-23.2-3.5-46.5-6.6-69.7-10.6c-31.3-5.4-62.5-11.7-93.7-17.3c-38.5-6.9-73.7-22.1-106.8-42.3
			c-24.1-14.7-46.9-31.2-68.5-49.6c-5.1-4.4-9.3-10.6-16.5-12.3c-0.3-0.3-0.7-0.6-1-0.8c0.3,0.3,0.6,0.7,0.8,1
			c0.6,6.7,6.1,10.8,8.3,16.8c9.2,24.9,17.1,50.3,24.9,75.7c5.2,16.8,9.2,33.9,12.3,51.2c1,5.5,0.9,11.3,0.4,16.9
			c-0.6,6.4-4.4,8.8-10.4,6.8c-4.4-1.5-8.6-3.6-11.9-7c-7.1-7.4-14.6-14.4-21.1-22.5C1442.3,2355.6,1438.2,2347.9,1431.4,2342.4"/>
	</g>
	<g>
		<path class="st0" d="M2118.3,2435.5c0.3,1.4,0.2,3,0.2,4.4c-0.1,6.6-0.5,27.1-1.6,37.4c-0.2,2-0.2,3.9,0,5.5
			c1,8.6,9.6,14.6,17.9,12.1c2-0.6,4-1.8,6-3.6c6.5-6,8.7-15.7,9.6-30.5c1.1-17.8,1.8-25.1-4.8-53.9
			C2139.7,2380.8,2115.9,2424.8,2118.3,2435.5z"/>
	</g>
	<g>
		<path class="st2" d="M1128,2771.2c4.4,3.7,7.4,8.5,10.6,13.1c9.8,14.3,20.9,27.5,33.2,39.7c4.8,4.8,10.8,8,16.8,10.7
			c9.4,4.2,15.5,0.1,16.4-10c0.5-5.1-0.9-9.9-1.9-14.8c-0.6-2.6-2.2-5.2-0.7-8.6c3.9,2.7,5.4,6.1,7.3,9.1
			c11.8,18.5,23.9,36.8,38.6,53.2c8,8.9,16.4,17.4,27.4,22.8c10.7,5.3,17.8,1.3,18-10.7c0.1-5.3-0.5-10.6-1.9-15.8
			c-0.9-3.4-2.8-6.8-1.5-11.2c1.5,0.9,2.8,1.3,3.6,2.2c14.6,15.3,26.6,32.3,33.9,52.3c3.5,9.7,7.2,19.3,13.1,27.9
			c3.7,5.5,7.9,9.7,15.5,8.6c8.2-1.2,11.8-6.6,13.7-13.8c1.7-6.5,2-13.1,2-19.8c0-1.8,24.6,24,31.3,41.6c3.7,9.6,7.3,19.3,13.1,27.9
			c3.9,5.8,8.3,10.2,16.3,8.8c8.3-1.5,11.4-7.1,13.3-14.3c1-3.8,0.7-8,3.3-11.3c1.5,0.9,2.3,2.2,3.2,3.7c8.8,16,12.8,33.3,15.5,51.2
			c1.5,9.8,2.1,19.8,6.8,28.9c5.1,10,19.7,14.3,26.9,1.1c5.1-9.2,8-18.9,9.3-29.2c0.4-3.1-0.4-6.6,2.1-9.3c2.2,0.8,2.9,2.2,3.6,3.7
			c8.4,15.8,12.3,32.9,15.4,50.3c1.9,10.7,2,21.9,8,31.7c5.8,9.6,18.1,10.6,25.1,1.8c2-2.6,3.3-5.7,4.6-8.8
			c3.1-7.6,4.2-15.7,6.3-24.2c7.4,10.2,13.3,26.8,14.9,40.5c1.3,11.2,3,22.4,6.2,33.3c2.1,7.1,5.4,13,13.6,14.1
			c6.1,0.8,10.2-1.4,13.5-5.4c1.8-2.2,3.2-4.7,4.1-7.4l6.7-18.2c0.2-0.6,1-0.8,1.5-0.2c5.4,6.5,6.9,14.5,8.1,22.5
			c2,13.8,4.2,27.5,8.2,40.9c2.1,7,6.4,11.6,13.7,12.8c7.5,1.3,11.2-3.6,15-9.2c4.4-6.6,5.2-14.4,8.1-21.6l0.1-0.4l6.7-18.2
			c0.2-0.6,1-0.8,1.5-0.2c5.4,6.5,6.9,14.5,8.1,22.5c2,13.8,4.2,27.5,8.2,40.9c2.1,7,6.4,11.6,13.7,12.8c5.4,0.9,8.9-1.4,11.8-4.8
			c1.9-2.3,3.4-4.9,4.5-7.7c2.2-5.3,6.4-16,8.8-22.8c1.4-4.1,6.2-3.2,8.1-0.9c1.4,1.7,2.3,3.7,2.8,5.8c1.5,5.8,5.2,24.1,16,25.8
			c13.4,2.1,21.8-3.1,25-24.4c1.6-10.3,2.7-19.4,5.2-29.7c0.2-0.7,0.4-1.9,0.7-2.6c0.7-1.9,3.5-1.5,3.9,0.4c0.6,2.8,1.2,3.4,2,7.5
			c1.6,7.6,4.3,14.6,9.5,20.6c8,9.3,22.9,6,30.9-3.1c3.9-4.3,4-12.2,4.8-21.7l0-0.1c-0.2-10.4,2.9-24.6,5.4-35c0.4-1.7,0-4.2,4-3.9
			c0.8,4.7,1.4,9.6,2.4,14.5c1.6,7.6,4.3,14.6,9.5,20.6c8,9.3,23.3,7.9,28.3-3.2c3.1-6.9,5.8-14,7.4-21.6
			c3.6-16.6,3.9-33.7,6.9-50.4c0.4-2-0.5-4.9,3.2-5.7c2.2,3,2.2,6.8,2.9,10.2c1.4,6.2,3.5,12.1,7.5,17.2
			c11.4,14.1,25.9,8.6,31.1-4.6c6.6-16.7,4.6-32.9,4.7-51.1c0-6.1-0.9-11.9-0.8-16c0,0,0,0,0,0c0.2-1.5,0.8-3.1,4-3.4
			c1.4,4.6,2.6,9.4,4.3,14c2.6,7.3,6.2,13.9,12.1,19.2c9.1,8.1,24.1,4.7,27.6-7c2.1-7.2,3.8-14.7,4.4-22.4c1.3-17-0.7-33.9,0.1-50.8
			c0.1-2-1.1-4.8,2.4-6.1c2.6,2.7,3,6.4,4.3,9.8c2.2,6,5,11.5,9.8,16c13.2,12.5,26.8,5.1,30.2-8.8c4.3-17.4,3.8-34.9,3.2-52.5
			c-0.2-6.9,0.2-14.3,0.7-21.1c0.4-0.2,0.8-0.4,1.4-0.5c2.1,4.3,4.2,8.8,6.7,13.1c3.8,6.7,8.6,12.6,15.3,16.8
			c10.4,6.4,24.6,0.4,26-11.7c0.9-7.5,1.2-15.1,0.5-22.8c-1.7-16.9-6.6-33.2-8.7-50.1c-0.3-2-1.9-4.5,1.3-6.4c3,2.2,4.1,5.8,5.9,8.9
			c3.2,5.5,7,10.5,12.4,14.1c15.1,10,27.3,0.3,28.3-13.9c1.2-17.9-2.3-35.1-6-52.3c-1.6-7.7-5.3-14.4-5.6-22.1
			c0.4-0.4,0.9-0.8,1.7-1.2c3,3.7,6.1,7.6,9.4,11.3c5.2,5.7,11.2,10.4,18.6,12.9c11.5,3.9,24.1-5.1,22.7-17.2
			c-0.8-7.5-2.2-15-4.6-22.3c-5.4-16.1-13.8-31-19.6-46.9c-0.7-1.9-2.9-4-0.2-6.6c3.5,1.4,5.3,4.7,7.7,7.3
			c4.4,4.7,9.1,8.7,15.2,10.9c17,6.4,26.7-5.8,24.5-19.8c-2.8-17.7-10-33.7-17.4-49.7c-2.6-5.5-5.4-10.9-7.3-16.6
			c0.2-0.7,0.8-1.5,2.2-2.2c3,3.7,6.1,7.6,9.4,11.3c5.2,5.7,11.2,10.4,18.6,12.9c11.6,3.9,24.1-5.1,22.7-17.2
			c-0.8-7.5-2.2-15-4.6-22.4c-5.4-16.1-13.8-31-19.6-46.9c-0.7-1.9-2.9-4-0.2-6.6c3.4,1.4,5.3,4.7,7.7,7.3
			c4.4,4.7,9.1,8.7,15.2,10.9c17,6.4,26.7-5.8,24.5-19.8c-2.8-17.7-10-33.7-17.4-49.7c-3.7-8.1-8.1-15.9-9.3-24.9
			c0.5-0.1,1.1-0.2,1.6-0.4c1.4,1.4,2.8,2.9,4.2,4.2c5.6,5.3,11.9,9.6,19.5,11.6c11.8,3.1,23.7-6.7,21.5-18.7
			c-1.3-7.4-3.2-14.8-6.2-22c-6.5-15.7-15.9-29.9-22.9-45.4c-0.8-1.9-3.2-3.8-0.6-6.6c3.5,1.2,5.6,4.4,8.2,6.8
			c4.7,4.4,9.7,8,15.9,9.9c17.4,5.2,26.2-7.6,23-21.5c-4-17.5-12.3-32.9-20.8-48.3c-2.9-5.3-6.1-10.5-8.4-16c0.1-0.8,0.7-1.5,2-2.4
			c3.3,3.5,6.6,7.2,10.2,10.6c5.6,5.3,11.8,9.6,19.5,11.6c11.8,3.1,23.7-6.7,21.5-18.7c-1.3-7.4-3.2-14.8-6.2-22
			c-6.5-15.7-15.9-29.9-22.8-45.4c-0.8-1.9-3.2-3.8-0.6-6.6c3.5,1.2,5.6,4.4,8.2,6.8c4.7,4.4,9.7,8,15.9,9.9
			c17.4,5.2,26.2-7.6,23-21.5c-4-17.5-12.3-32.9-20.8-48.3c-4.3-7.8-9.2-15.3-11-24.2c15.2-4.3,19-9.4,18.8-25
			c-0.1-11.1-3.4-21.6-6.3-32.1c-0.6-2.3-1.8-4.5-3-7.7c-14.1,28.5-26.7,56-42.6,81.7c0.7,1.5,1.4,3,2.1,4.5c4.3,8.8,4.4,9.2-5.1,13
			c-15,6-29,26.9-19.3,48.1c2.5,5.4,4.7,11,7.2,16.4c3.3,7.1,3.4,7.2-4.5,10.2c-16.9,6.3-27.9,28.4-23.3,44.7
			c0.6,2.1,1.2,4.1,1.9,6.2c0,0,0,0,0,0.1c0.5,1.1,1.1,2.2,1.6,3.3c2.1,4.3,3.2,6.6,2.6,8.2c-0.5,1.7-2.9,2.8-7.8,4.7
			c-15,6-29,26.9-19.3,48.1c2.5,5.4,4.7,11,7.2,16.4c3.3,7.1,3.4,7.2-4.5,10.2c-16.9,6.3-27.9,28.3-23.3,44.7
			c2.9,10.4,7,20.3,11.4,30c-1.3,0.8-3.4,1.5-6.4,2.4c-15.3,4.9-30.8,24.8-22.6,46.6c2.1,5.6,3.9,11.3,6,16.9
			c2.8,7.4,2.9,7.5-5.1,9.9c-17.3,5.1-29.8,26.3-26.3,43c0.4,1.7,0.7,3.3,1.1,4.9c0.1,0.5,0.2,0.9,0.4,1.4c0.4,1.1,0.9,2.3,1.3,3.4
			c1.8,4.4,2.7,6.8,2.1,8.4c-0.7,1.7-3.1,2.6-8.1,4.2c-15.3,4.9-30.8,24.8-22.6,46.6c2.1,5.6,3.9,11.3,6,16.9
			c2.8,7.4,2.9,7.5-5.2,9.8c-17.3,5.1-29.8,26.3-26.3,43c1,4.8,2.2,9.6,3.7,14.3c-1.2,1.1-3.8,1.4-8.4,1.8
			c-16,1.4-35.5,17.3-32.4,40.5c0.8,5.9,1.3,11.9,2.1,17.8c1.1,7.8,1.1,7.9-7.2,8.4c-18,1.2-34.9,19.1-35.2,36.1
			c-0.1,4.3,0,8.6,0.3,12.8c-0.9,2.7-3.2,2.7-9.9,2.1c-16-1.4-38,10.9-38.9,34.2c-0.2,6-0.7,11.9-1,17.9c-0.3,7.9-0.2,8-8.6,7.1
			c-17.9-2-37.7,12.7-40.9,29.4c-0.9,4.4-1.5,8.9-2,13.3c-0.8-0.2-1.7-0.4-2.7-0.6c-15.7-3.6-39.1,5.7-43.1,28.7
			c-1,5.9-2.3,11.7-3.4,17.6c-1.4,7.8-1.3,7.9-9.5,5.9c-17.5-4.4-38.8,12.2-44.5,23.6c-5.7,11.3-5.9,15.6-12.2,27.9
			c0,0-27.5-18.3-47.4,6.3c-1.2,1.5-3.6,1.5-4.8-0.1c-5.3-7.2-20.5-21.9-48.7-9.5c-1.1,0.5-2.5,0-3.1-1.1
			c-9.3-18.7-19.6-26.4-39.7-24.7c-6.5,0.6-9.1-1-10.8-6.5c-0.8-2.5-1.6-5.1-2.5-7.6c-7.8-21-19.3-32.9-45.2-29.8
			c-4.2,0.5-5.1-1.5-6.1-4.7c-2.9-9.9-7.3-19.3-12.2-28.4c-7.3-13.7-18.4-24.1-41.4-20.2c-5.2,0.9-7-0.2-8.4-5.1
			c-3.4-11.9-9-22.9-15.6-33.3c-8.8-13.8-24.6-20.3-40.6-16.5c-6,1.4-8.5,1.2-11.3-5.8c-3.3-8.3-7.2-16.6-12.2-23.9
			c-9.7-14.4-23.2-21.9-41-17.8c-6,1.4-8.3-0.6-10.7-5.4c-6.9-13.7-15.8-26.2-26.5-37.3c-11.8-12.2-25.4-17.7-42.4-11.9
			c-7.3,2.5-7.7,2.1-11.9-4.7c-9.3-15.2-21.7-27.6-33.6-40.6c-11.3-12.3-34.5-13.9-48.7-4.5c-3.2,2.1-7.6,1.4-9.7-1.9
			c-6.5-9.7-12.5-19.7-19.1-29.3c-5.1-7.3-10.7-14.2-19.5-17.9c-13-5.4-25.2-5-37,2.8c-3.4,2.3-6.1,1.7-8.5-1.7
			c-4.7-6.9-9.5-13.7-14.3-20.4c-4.1-5.7-8.6-11.1-15.3-13.9c-13.9-5.8-27.4-5-39.8,3.7c-3.9,2.8-5.4,1.8-7.9-1.4
			c-8.4-10.8-15.4-22.5-22.8-34c-3.1-4.8-6.5-9.2-11.4-12.4c-11.2-7.4-23.1-8.7-35.5-4.7c-1.6,0.5-3.4,0.7-5.1,0.3
			c-6.7-1.3-11.1-7.2-13.9-12.5c-2-4-3.4-8.4-4.1-12.8c-1.1-6.8-2-10.4-6.2-18.5c-1-1.9-2.2-3.6-3.4-5.3c-1.4-2.1-1.1-4,1.2-6.1
			c4.3-3.7,7.6-8.5,10.7-13.1c12.4-18.4,14.9-31.4,2.6-49.7c-3.3-4.9-1.5-8.1,1.2-11.5c4.1-5.2,8.9-9.9,12.6-15.4
			c12.5-18.5,14.5-31.7,2.3-48.7c-3.8-5.3-3.8-8.4,0.1-12.6c1.8-2,3.6-4,5.2-6c14.1-17.4,18.5-33.4,2.6-54c-2.6-3.4-1.3-5.2,0.9-7.6
			c7-7.6,12.9-16.1,18.2-24.9c8.1-13.3,11.4-28.1-3.7-45.9c-3.4-4-3.4-6.1,0.1-9.8c8.5-9,15.1-19.4,20.7-30.4
			c7.4-14.5,4.9-31.5-6.4-43.4c-4.3-4.5-5.3-6.7-0.8-12.7c5.4-7.1,10.6-14.7,14.4-22.7c7.4-15.7,7.1-31.2-5.6-44.3
			c-4.2-4.4-3.7-7.4-0.8-12c8.3-13,14.5-26.9,18.6-41.8c4.5-16.4,2.3-30.8-11.3-42.5c-5.9-5-5.7-5.6-2-12.7
			c8.3-15.7,12.7-32.7,17.8-49.6c4.8-16-5.6-36.7-20.9-44.2c-3.5-1.7-5-5.9-3.3-9.3c5.1-10.5,10.7-20.7,15.5-31.4
			c3.7-8.1,6.8-16.4,5.5-25.9c-2-13.9-8.5-24.3-21.3-30.4c-3.7-1.8-4.6-4.4-2.8-8.2c3.5-7.5,7-15.1,10.3-22.7
			c2.9-6.4,5.2-13.1,4.2-20.2c-2.1-14.9-9.6-26.2-23.4-32.4c-4.4-2-4.3-3.8-2.8-7.5c5.1-12.7,11.6-24.7,17.6-36.9
			c2.5-5.1,4.6-10.3,4.9-16.1c0.7-14-4.7-25.2-15.4-34.1c-2-1.6-5.8-2.9-4.4-5.9c3.1-7,5.3-15.1,13.9-18c-0.1-0.7,0-1.4-0.3-1.9
			c-12.8-20.4-21.3-42.6-28.6-65.4c-1.9-5.8-3.1-11.9-6.7-18.1c-5.9,9-10.1,17.9-13.9,27c-3.1,7.3-5.4,15-4.6,23.2
			c1,9.8,6.4,13.5,15.7,10.3c2.8-1,5.2-3,8.3-3.1c0.7-0.6,1.4-1.3,2.1-1.9c0.1-0.3,0.4-0.8,0.4-0.8c0.6,0.2,0.4,0.4-0.5,0.7
			c-0.2,1-0.8,1.8-1.9,2.1c-0.1,3.9-2.6,6.7-4.6,9.7c-11,17-21.7,34.1-29.8,52.8c-3.8,8.9-6.9,18-5.8,27.9c0.8,7.1,4.1,10,11.2,9.5
			c5.2-0.3,9.2-3.4,13.6-5.7c4.2-2.2,7.1-6.6,11.9-7.7c1.5,2.4,0.1,3.8-0.5,5.2c-5.6,12-11.4,24-17,36c-6.2,13.3-10.7,27.2-15,41.1
			c-2.6,8.4-2.7,17-2.1,25.7c0.7,10.7,7.9,14.8,17.2,9.5c5.4-3.1,10.9-6.4,14.5-11.8c1.5-2.3,3.2-4.3,6.2-4.3l0,0
			c-0.9,5.7-3.5,10.7-5.9,15.8c-7.3,15.7-13,32-17.2,48.8c-1.7,6.6-1.4,13.3-0.7,19.9c1.1,10.2,7.8,13.4,17,9
			c4.7-2.2,8.1-5.8,11.7-9.2c1.9-1.8,3.4-4.6,7.1-5c-0.3,4.7-2.5,7.7-4.1,10.9c-10,19.6-19.6,39.3-26.2,60.3
			c-3.6,11.4-6.6,22.9-5.7,35.2c0.9,11.9,7.9,16,18.4,10.1c4.6-2.6,8.9-5.8,12.6-9.7c2.5-2.5,4.4-5.9,8.8-7c0,1.7,0.3,3,0,4.2
			c-5.7,20.4-14.2,39.3-27.8,55.8c-6.5,8-12.9,16-17.3,25.5c-2.8,6-4.3,11.7,0.5,17.7c5.2,6.5,11.7,6.8,18.9,4.8
			c6.5-1.8,12.3-5,18.1-8.3c1.6-0.9,2.8-3.1,5.4-0.9c-4.8,18.1-13.6,34.3-25.3,48.9c-6.4,8.1-12.9,16.1-17.4,25.4
			c-3,6.3-4.6,12.3,0.7,18.5c5.5,6.4,11.9,6.2,19.1,4.2c3.8-1.1,7.2-3.5,11.5-2.9l0,0c0,1.7-0.8,3.1-1.7,4.6
			c-9.3,15.7-22.2,28-36.2,39.4c-7.7,6.2-16,11.8-21.5,20.5c-6,9.5-2.3,24.2,12.8,23.7c10.6-0.3,20.3-2.7,29.9-6.9
			c2.9-1.3,5.5-3.7,9.1-2.9c0.4,2.2-0.5,3.6-1.3,5c-9.3,15.3-22.1,27.3-35.5,38.9c-8.3,7.1-17.8,12.9-23.2,23
			c-5.3,9.9,0.1,21,11.2,22.5c3.3,0.4,6.6,0,9.9-0.5c8.1-1.2,15.6-4.4,24-6.9c-5,11.5-16.3,25.1-27.3,33.5c-9,6.9-17.8,14-25.5,22.3
			c-5,5.4-8.4,11.2-5.2,18.9c3.2,7.6,9.3,9.3,17,9.2c8.2-0.1,15.5-3.8,23.5-4.3c-2.5,8.8-9,14.4-15.7,19.8
			c-10.8,8.8-21.5,17.6-31.1,27.9c-5,5.3-6.8,11.4-4.1,18.3c2.7,7.1,8.8,7.9,15.5,8.2c8.9,0.5,16.8-3.6,25.4-4.2l0,0
			c0,3.5-1.8,6.5-4.1,8.8c-8.5,8.8-16.9,17.7-26.4,25.6c-8.1,6.7-17.3,12.3-22.6,22c-1.9,3.5-3.4,7-2.2,11.3
			c2.5,8.8,10.5,13.7,20.8,12c6.2-1,12.3-2.4,18.4-3.7c0.3-0.3,0.6-0.5,0.9-0.8c0,0.2,0,0.4-0.1,0.5c-0.2,0.2-0.5,0.2-0.7,0.3
			c0,3.6-2,6.3-4.1,8.9c-8.3,10.5-18.5,18.9-28.6,27.5c-6.8,5.7-14.9,10.2-19.3,18.5c-3.1,5.7-5.7,11.4-1.7,17.7l0,0.1
			c4.7,9.6,10.3,17.8,16.2,25.7c4.7,6.4,10.1,12.3,17.6,15.8c8.9,4.1,14.8,1.4,16.8-8.3c0.6-2.9,0.1-6,1.6-8.7c0,0,0-0.1,0.1,0
			c3.3,2.1,4.4,5.6,6.1,8.9c9,18.1,18.3,36.1,30.3,52.5c5.7,7.8,12,15.1,21.1,19.2c6.5,2.9,10.7,1.6,13.9-4.8
			c2.4-4.6,1.8-9.7,2.1-14.6c0.3-4.7-2.1-9.5-0.6-14.1c2.8,0,3.3,1.8,4.2,3.1c7.5,11,14.9,22,22.4,33c8.3,12.1,18,23,27.8,33.8
			c5.9,6.5,13.3,11,21,14.9c9.6,4.9,16.8,0.8,17-10c0.1-6.2,0-12.7-2.8-18.5C1127.3,2776.2,1126.4,2773.8,1128,2771.2"/>
	</g>
</g>
</svg>
